<svg width="25" height="25" viewBox="0 0 25 25" fill="none" xmlns="http://www.w3.org/2000/svg">
<path d="M16.2592 2.81836H8.18919C6.61234 2.82021 5.10062 3.4475 3.98572 4.5626C2.87081 5.67769 2.24378 7.18951 2.24219 8.76636L2.24219 16.8364C2.24404 18.4132 2.87133 19.9249 3.98642 21.0398C5.10152 22.1547 6.61334 22.7818 8.19019 22.7834H16.2602C17.837 22.7815 19.3488 22.1542 20.4637 21.0391C21.5786 19.924 22.2056 18.4122 22.2072 16.8354V8.76536C22.2053 7.18851 21.578 5.6768 20.463 4.56189C19.3479 3.44698 17.836 2.81995 16.2592 2.81836V2.81836ZM20.1992 16.8354C20.1992 17.3528 20.0973 17.8651 19.8993 18.3431C19.7013 18.8212 19.4111 19.2555 19.0452 19.6214C18.6793 19.9872 18.245 20.2774 17.767 20.4754C17.2889 20.6734 16.7766 20.7754 16.2592 20.7754H8.18919C7.14441 20.7751 6.14251 20.3599 5.40383 19.621C4.66516 18.8821 4.25019 17.8801 4.25019 16.8354V8.76536C4.25045 7.72058 4.66568 6.71868 5.40454 5.98001C6.1434 5.24133 7.14541 4.82636 8.19019 4.82636H16.2602C17.305 4.82662 18.3069 5.24185 19.0455 5.98071C19.7842 6.71958 20.1992 7.72158 20.1992 8.76636V16.8364V16.8354Z" fill="#F9F9F9"/>
<path d="M12.2245 7.63672C10.8559 7.63884 9.54403 8.1835 8.5764 9.15132C7.60877 10.1191 7.06435 11.4311 7.0625 12.7997C7.06409 14.1686 7.60852 15.481 8.5764 16.4491C9.54428 17.4172 10.8566 17.9619 12.2255 17.9637C13.5946 17.9621 14.9072 17.4176 15.8752 16.4495C16.8433 15.4814 17.3879 14.1688 17.3895 12.7997C17.3874 11.4308 16.8424 10.1186 15.8742 9.15091C14.9059 8.18322 13.5934 7.63904 12.2245 7.63772V7.63672ZM12.2245 15.9557C11.3877 15.9557 10.5853 15.6233 9.99358 15.0316C9.4019 14.44 9.0695 13.6375 9.0695 12.8007C9.0695 11.964 9.4019 11.1615 9.99358 10.5698C10.5853 9.97812 11.3877 9.64572 12.2245 9.64572C13.0613 9.64572 13.8637 9.97812 14.4554 10.5698C15.0471 11.1615 15.3795 11.964 15.3795 12.8007C15.3795 13.6375 15.0471 14.44 14.4554 15.0316C13.8637 15.6233 13.0613 15.9557 12.2245 15.9557Z" fill="#F9F9F9"/>
<path d="M17.3991 8.91345C18.0823 8.91345 18.6361 8.35963 18.6361 7.67645C18.6361 6.99328 18.0823 6.43945 17.3991 6.43945C16.7159 6.43945 16.1621 6.99328 16.1621 7.67645C16.1621 8.35963 16.7159 8.91345 17.3991 8.91345Z" fill="#F9F9F9"/>
</svg>
