<svg width="25" height="25" viewBox="0 0 25 25" fill="none" xmlns="http://www.w3.org/2000/svg">
<path d="M22.2012 14.5367V21.9158H17.9232V15.0308C17.9232 13.3008 17.3042 12.1208 15.7562 12.1208C14.5742 12.1208 13.8702 12.9167 13.5612 13.6858C13.4482 13.9607 13.4192 14.3438 13.4192 14.7288V21.9158H9.13919C9.13919 21.9158 9.19719 10.2558 9.13919 9.04675H13.4192V10.8708L13.3912 10.9128H13.4192V10.8708C13.9872 9.99575 15.0022 8.74475 17.2752 8.74475C20.0902 8.74475 22.2012 10.5848 22.2012 14.5367ZM4.66319 2.84375C3.20019 2.84375 2.24219 3.80375 2.24219 5.06675C2.24219 6.30175 3.17219 7.29075 4.60719 7.29075H4.63519C6.12819 7.29075 7.05519 6.30175 7.05519 5.06675C7.02919 3.80375 6.12919 2.84375 4.66419 2.84375H4.66319ZM2.49619 21.9158H6.77419V9.04675H2.49619V21.9158Z" fill="#F9F9F9"/>
</svg>
