<svg width="25" height="25" viewBox="0 0 25 25" fill="none" xmlns="http://www.w3.org/2000/svg">
<path d="M22.2422 6.72601C21.4926 7.05339 20.6986 7.26805 19.8862 7.36301C20.739 6.86224 21.3802 6.06812 21.6902 5.12901C20.8822 5.59934 20.0009 5.93061 19.0832 6.10901C18.6967 5.70422 18.2319 5.3824 17.7169 5.16319C17.202 4.94398 16.6478 4.83198 16.0882 4.83401C13.8222 4.83401 11.9852 6.64401 11.9852 8.87401C11.9852 9.19001 12.0212 9.49901 12.0912 9.79401C10.4658 9.71671 8.8743 9.30142 7.41836 8.57465C5.96241 7.84788 4.67395 6.82559 3.63519 5.57301C3.27101 6.18741 3.0796 6.88879 3.08119 7.60301C3.08188 8.27098 3.24902 8.92824 3.56748 9.51541C3.88594 10.1026 4.34569 10.6011 4.90519 10.966C4.25467 10.945 3.61821 10.7713 3.04719 10.459V10.509C3.04719 12.467 4.46219 14.1 6.33719 14.472C5.9848 14.5655 5.62177 14.6129 5.25719 14.613C4.99219 14.613 4.73519 14.588 4.48419 14.538C4.75227 15.3459 5.26529 16.0503 5.95201 16.5534C6.63872 17.0564 7.46503 17.3331 8.31619 17.345C6.85626 18.4696 5.06401 19.0771 3.22119 19.072C2.88919 19.072 2.56319 19.052 2.24219 19.016C4.12344 20.2067 6.30478 20.8373 8.53119 20.834C16.0782 20.834 20.2042 14.677 20.2042 9.33801L20.1902 8.81501C20.995 8.24868 21.6903 7.54086 22.2422 6.72601Z" fill="#F9F9F9"/>
</svg>
