<svg width="25" height="25" viewBox="0 0 25 25" fill="none" xmlns="http://www.w3.org/2000/svg">
<path d="M18.0542 5.83498H6.38719C4.09719 5.83498 2.24219 7.66998 2.24219 9.93398V15.702C2.24219 17.966 4.09819 19.802 6.38719 19.802H18.0542C20.3442 19.802 22.1992 17.966 22.1992 15.702V9.93398C22.1992 7.66998 20.3432 5.83398 18.0542 5.83398V5.83498ZM15.2512 13.098L9.79419 15.673C9.7609 15.689 9.72411 15.6964 9.68722 15.6943C9.65033 15.6923 9.61456 15.681 9.58322 15.6614C9.55188 15.6419 9.526 15.6147 9.50799 15.5825C9.48997 15.5502 9.48041 15.5139 9.48019 15.477V10.168C9.48085 10.1309 9.49091 10.0945 9.50941 10.0623C9.52791 10.0301 9.55426 10.0031 9.58601 9.98386C9.61775 9.9646 9.65386 9.95368 9.69096 9.95213C9.72806 9.95057 9.76495 9.95844 9.79819 9.97498L15.2562 12.71C15.2925 12.7281 15.323 12.7561 15.3442 12.7908C15.3653 12.8255 15.3763 12.8654 15.3758 12.9061C15.3752 12.9467 15.3633 12.9863 15.3412 13.0204C15.3192 13.0546 15.288 13.0818 15.2512 13.099V13.098Z" fill="#F9F9F9"/>
</svg>
