<svg width="277" height="43" viewBox="0 0 277 43" fill="none" xmlns="http://www.w3.org/2000/svg">
<path d="M38.201 34.7754L0.744141 41.07V42.8185H51.956V40.4095L38.201 34.7754Z" fill="#1B1A32"/>
<path d="M38.201 10.9574L51.956 3.57484V0.388672H0.744141V1.9429L38.201 10.9574Z" fill="#1B1A32"/>
<path d="M29.6926 34.5808V19.6602L25.1465 21.0201V34.1922L29.6926 34.5808Z" fill="#1B1A32"/>
<path d="M65.3228 4.15779V11.8901C65.3228 12.8615 65.3228 13.522 65.1285 13.9106C65.1285 14.3768 64.74 14.882 64.468 15.154C63.8852 15.8145 63.108 16.2031 62.0589 16.2031C61.0098 16.2031 60.6213 16.0088 59.9219 15.6202L60.7767 14.066C61.243 14.338 61.6315 14.5323 62.0201 14.5323C62.6029 14.5323 62.8749 14.338 63.1858 13.9494C63.38 13.5609 63.4577 12.7838 63.4577 11.8124V4.08008H65.284L65.3228 4.15779Z" fill="#1B1A32"/>
<path d="M73.1717 8.54912H74.9202V16.0871H73.1717V15.31C72.5111 15.9706 71.734 16.2814 70.8403 16.2814C69.9467 16.2814 68.8976 15.8928 68.237 15.1157C67.5765 14.3386 67.2656 13.3672 67.2656 12.2016C67.2656 11.0359 67.5376 10.1811 68.237 9.40395C68.9364 8.62684 69.7912 8.23828 70.7626 8.23828C71.734 8.23828 72.3946 8.62683 73.094 9.28738V8.51026H73.1717V8.54912ZM69.0918 12.3181C69.0918 12.9787 69.2861 13.6781 69.6747 14.0666C70.0632 14.5329 70.5295 14.7272 71.1123 14.7272C71.6952 14.7272 72.278 14.5329 72.6666 14.0666C73.0551 13.6004 73.2494 13.0175 73.2494 12.3181C73.2494 11.6187 73.0551 11.0747 72.6666 10.5696C72.278 10.0645 71.8117 9.90907 71.1123 9.90907C70.4129 9.90907 70.0632 10.1034 69.6747 10.5696C69.2861 11.0359 69.0918 11.6187 69.0918 12.3181Z" fill="#1B1A32"/>
<path d="M77.0174 8.54779H78.7659V9.20835C79.0379 8.93636 79.3487 8.62551 79.6207 8.54779C79.8927 8.47008 80.2035 8.35352 80.4755 8.35352C80.9418 8.35352 81.4469 8.5478 81.9132 8.81979L81.1361 10.374C80.8641 10.1797 80.4755 9.98546 80.1647 9.98546C79.1933 9.98546 78.727 10.646 78.727 12.1225V16.0081H76.9785V8.54779H77.0174Z" fill="#1B1A32"/>
<path d="M82.7285 5.43972C82.7285 5.16773 82.7285 4.85689 83.0005 4.66261C83.1948 4.46833 83.4668 4.39062 83.7776 4.39062C84.0885 4.39062 84.3605 4.46833 84.5547 4.66261C84.749 4.85689 84.8267 5.12888 84.8267 5.43972C84.8267 5.75057 84.8267 6.02256 84.5547 6.21684C84.3605 6.41111 84.0885 6.48883 83.7776 6.48883C83.4668 6.48883 83.1948 6.41111 83.0005 6.21684C82.8062 6.02256 82.7285 5.75057 82.7285 5.43972ZM84.7879 16.0862H83.0394V8.54818H84.7879V16.0862Z" fill="#1B1A32"/>
<path d="M86.8103 8.54779H88.5588V9.20835C88.8308 8.93636 89.1417 8.62551 89.4137 8.54779C89.6857 8.47008 89.9965 8.35352 90.2685 8.35352C90.7348 8.35352 91.2399 8.5478 91.7062 8.81979L90.929 10.374C90.6571 10.1797 90.2685 9.98546 89.9577 9.98546C88.9863 9.98546 88.52 10.646 88.52 12.1225V16.0081H86.7715V8.54779H86.8103Z" fill="#1B1A32"/>
<path d="M106.471 4.85677V6.99384C105.422 6.13901 104.334 5.75046 103.285 5.75046C102.236 5.75046 101.07 6.21673 100.177 7.11041C99.322 7.96523 98.9334 9.05319 98.9334 10.2966C98.9334 11.54 99.322 12.6279 100.177 13.4827C101.032 14.3376 102.003 14.7261 103.285 14.7261C104.568 14.7261 104.451 14.6484 104.917 14.4541C105.189 14.3764 105.383 14.2599 105.694 14.0656C105.966 13.8713 106.277 13.677 106.549 13.405V15.5421C105.5 16.1249 104.412 16.3969 103.246 16.3969C101.498 16.3969 100.06 15.8141 98.8946 14.6484C97.7289 13.4827 97.0684 12.0451 97.0684 10.2966C97.0684 8.54806 97.5346 7.38239 98.6226 6.21672C99.866 4.77906 101.42 4.00195 103.48 4.00195C105.539 4.00195 105.422 4.27394 106.471 4.85677Z" fill="#1B1A32"/>
<path d="M107.908 12.3168C107.908 11.2677 108.297 10.2963 109.074 9.51919C109.851 8.74207 110.822 8.35352 111.871 8.35352C112.921 8.35352 113.892 8.74207 114.786 9.51919C115.563 10.2963 115.951 11.2677 115.951 12.3168C115.951 13.3659 115.563 14.3373 114.786 15.1144C114.009 15.8915 113.037 16.2801 111.871 16.2801C110.706 16.2801 109.851 15.8915 109.074 15.1144C108.219 14.4539 107.908 13.4825 107.908 12.3168ZM109.657 12.3168C109.657 13.0939 109.851 13.6768 110.24 14.0653C110.628 14.5316 111.211 14.7258 111.871 14.7258C112.532 14.7258 113.115 14.5316 113.503 14.0653C113.892 13.599 114.086 13.0162 114.086 12.3168C114.086 11.6174 113.892 10.9569 113.503 10.5683C113.115 10.102 112.532 9.90774 111.871 9.90774C111.211 9.90774 110.706 10.102 110.24 10.5683C109.851 11.0346 109.657 11.6174 109.657 12.3168Z" fill="#1B1A32"/>
<path d="M117.621 8.54779H119.37V9.20835C119.642 8.81979 119.952 8.62551 120.224 8.54779C120.496 8.47008 120.807 8.35352 121.196 8.35352C122.051 8.35352 122.75 8.74208 123.216 9.40262C123.799 8.62551 124.46 8.35352 125.431 8.35352C127.18 8.35352 127.957 9.40262 127.957 11.462V16.1247H126.208V11.9671C126.208 11.3066 126.131 10.7237 125.936 10.4129C125.742 10.1409 125.47 9.9466 125.081 9.9466C124.693 9.9466 124.227 10.1409 124.032 10.5294C123.838 10.918 123.76 11.5008 123.76 12.2779V16.1635H122.012V12.0059C122.012 10.646 121.623 9.98546 120.846 9.98546C120.069 9.98546 119.991 10.1797 119.797 10.5683C119.603 10.9569 119.525 11.5397 119.525 12.3168V16.2024H117.777V8.66437H117.699L117.621 8.54779Z" fill="#1B1A32"/>
<path d="M130.018 8.54779H131.766V9.20835C132.038 8.81979 132.349 8.62551 132.621 8.54779C132.893 8.47008 133.204 8.35352 133.592 8.35352C134.447 8.35352 135.147 8.74208 135.613 9.40262C136.196 8.62551 136.856 8.35352 137.828 8.35352C139.576 8.35352 140.353 9.40262 140.353 11.462V16.1247H138.605V11.9671C138.605 11.3066 138.527 10.7237 138.333 10.4129C138.138 10.1409 137.866 9.9466 137.478 9.9466C137.089 9.9466 136.623 10.1409 136.429 10.5294C136.234 10.918 136.157 11.5008 136.157 12.2779V16.1635H134.331V12.0059C134.331 10.646 133.942 9.98546 133.165 9.98546C132.388 9.98546 132.31 10.1797 132.116 10.5683C131.922 10.9569 131.844 11.5397 131.844 12.3168V16.2024H130.095V8.66437L130.018 8.54779Z" fill="#1B1A32"/>
<path d="M149.172 12.7829H143.732C143.732 13.3657 144.004 13.832 144.315 14.2205C144.704 14.6091 145.092 14.8034 145.675 14.8034C146.258 14.8034 146.452 14.7256 146.724 14.5314C146.996 14.3371 147.307 13.9485 147.696 13.3657L149.133 14.1428C148.939 14.5314 148.667 14.8034 148.473 15.1142C148.201 15.3862 148.007 15.5805 147.696 15.7748C147.385 15.969 147.113 16.0467 146.724 16.1633C146.452 16.241 146.064 16.241 145.675 16.241C144.51 16.241 143.655 15.8525 142.955 15.1919C142.295 14.4148 141.906 13.56 141.906 12.2777C141.906 10.9955 142.178 10.1407 142.878 9.36356C143.538 8.70301 144.432 8.31445 145.481 8.31445C146.53 8.31445 147.501 8.70301 148.084 9.36356C148.745 10.0241 149.056 10.9955 149.056 12.2777V12.744H149.133L149.172 12.7829ZM147.424 11.3452C147.152 10.3738 146.569 9.98526 145.675 9.98526C144.782 9.98526 145.287 9.98525 145.092 10.063C144.898 10.1407 144.704 10.2572 144.626 10.335C144.432 10.4127 144.354 10.6069 144.238 10.7235C144.16 10.9178 144.043 11.1121 143.966 11.3063H147.463L147.424 11.3452Z" fill="#1B1A32"/>
<path d="M150.922 8.54779H152.67V9.20835C152.942 8.93636 153.253 8.62551 153.525 8.54779C153.797 8.47008 154.108 8.35352 154.38 8.35352C154.846 8.35352 155.351 8.5478 155.817 8.81979L155.04 10.374C154.768 10.1797 154.38 9.98546 154.069 9.98546C153.098 9.98546 152.631 10.646 152.631 12.1225V16.0081H150.883V8.54779H150.922Z" fill="#1B1A32"/>
<path d="M162.461 8.93708V11.2684C162.072 10.8022 161.684 10.4913 161.412 10.297C161.14 10.1027 160.751 10.025 160.362 10.025C159.702 10.025 159.197 10.2193 158.73 10.6856C158.342 11.1519 158.07 11.7347 158.07 12.4341C158.07 13.1335 158.264 13.6775 158.653 14.1826C159.041 14.6489 159.624 14.8431 160.285 14.8431C160.945 14.8431 161.062 14.7654 161.334 14.5712C161.606 14.3769 161.994 14.1049 162.383 13.5221V15.8534C161.722 16.242 160.945 16.4362 160.246 16.4362C159.08 16.4362 158.109 16.0477 157.332 15.2706C156.555 14.4935 156.166 13.5221 156.166 12.4729C156.166 11.4238 156.555 10.4524 157.332 9.67533C158.109 8.89822 159.08 8.50966 160.246 8.50966C161.101 8.43195 161.8 8.58738 162.461 8.97594" fill="#1B1A32"/>
<path d="M163.705 5.43972C163.705 5.16773 163.783 4.85689 163.977 4.66261C164.171 4.46833 164.443 4.39062 164.754 4.39062C165.065 4.39062 165.337 4.46833 165.531 4.66261C165.726 4.85689 165.803 5.12888 165.803 5.43972C165.803 5.75057 165.726 6.02256 165.531 6.21684C165.337 6.41111 165.065 6.48883 164.754 6.48883C164.443 6.48883 164.171 6.41111 163.977 6.21684C163.783 6.02256 163.705 5.75057 163.705 5.43972ZM165.726 16.0862H163.977V8.54818H165.726V16.0862Z" fill="#1B1A32"/>
<path d="M173.303 8.54912H175.051V16.0871H173.303V15.31C172.642 15.9706 171.865 16.2814 170.971 16.2814C170.078 16.2814 169.028 15.8928 168.368 15.1157C167.707 14.3386 167.396 13.3672 167.396 12.2016C167.396 11.0359 167.668 10.1811 168.368 9.40395C169.067 8.62684 169.922 8.23828 170.893 8.23828C171.865 8.23828 172.525 8.62683 173.225 9.28738V8.51026H173.303V8.54912ZM169.223 12.3181C169.223 12.9787 169.417 13.6781 169.806 14.0666C170.194 14.5329 170.66 14.7272 171.243 14.7272C171.826 14.7272 172.409 14.5329 172.797 14.0666C173.186 13.6004 173.38 13.0175 173.38 12.3181C173.38 11.6187 173.186 11.0747 172.797 10.5696C172.409 10.1034 171.943 9.90907 171.243 9.90907C170.544 9.90907 170.194 10.1034 169.806 10.5696C169.417 11.0359 169.223 11.6187 169.223 12.3181Z" fill="#1B1A32"/>
<path d="M178.821 2.99219H177.072V16.0477H178.821V2.99219Z" fill="#1B1A32"/>
<path d="M185.969 16.0869V4.1582H188.494C189.66 4.1582 190.631 4.23591 191.292 4.54676C192.069 4.74104 192.73 5.1296 193.312 5.71243C194.556 6.8781 195.139 8.31576 195.139 10.1808C195.139 12.0459 194.478 13.4836 193.196 14.6492C192.535 15.2321 191.836 15.6206 191.175 15.8149C190.515 16.0092 189.621 16.0869 188.378 16.0869H185.969ZM187.834 14.455H188.611C189.388 14.455 190.049 14.3772 190.631 14.183C191.214 13.9887 191.681 13.7167 192.069 13.3282C192.924 12.551 193.429 11.5019 193.429 10.142C193.429 8.78203 192.963 7.81063 192.069 6.95581C191.292 6.29526 190.126 5.90671 188.572 5.90671H187.795V14.5327L187.834 14.455Z" fill="#1B1A32"/>
<path d="M203.803 12.7829H198.363C198.363 13.3657 198.635 13.832 198.946 14.2205C199.335 14.6091 199.723 14.8034 200.306 14.8034C200.889 14.8034 201.083 14.7256 201.355 14.5314C201.627 14.3371 201.938 13.9485 202.327 13.3657L203.764 14.1428C203.57 14.5314 203.298 14.8034 203.104 15.1142C202.832 15.3862 202.637 15.5805 202.327 15.7748C202.016 15.969 201.744 16.0467 201.355 16.1633C201.083 16.241 200.695 16.241 200.306 16.241C199.14 16.241 198.286 15.8525 197.586 15.1919C196.926 14.4148 196.537 13.56 196.537 12.2777C196.537 10.9955 196.809 10.1407 197.509 9.36356C198.169 8.70301 199.063 8.31445 200.112 8.31445C201.161 8.31445 202.132 8.70301 202.715 9.36356C203.376 10.0241 203.687 10.9955 203.687 12.2777V12.744H203.764L203.803 12.7829ZM202.055 11.3452C201.783 10.3738 201.2 9.98526 200.306 9.98526C199.412 9.98526 199.918 9.98525 199.723 10.063C199.529 10.1407 199.335 10.2572 199.257 10.335C199.063 10.4127 198.985 10.6069 198.868 10.7235C198.791 10.9178 198.674 11.1121 198.596 11.3063H202.093L202.055 11.3452Z" fill="#1B1A32"/>
<path d="M206.212 8.54883L208.233 12.7841L210.176 8.54883H212.118L208.155 16.6697L204.27 8.54883H206.212Z" fill="#1B1A32"/>
<path d="M219.696 12.7829H214.256C214.256 13.3657 214.528 13.832 214.839 14.2205C215.227 14.6091 215.616 14.8034 216.199 14.8034C216.782 14.8034 216.976 14.7256 217.248 14.5314C217.52 14.3371 217.831 13.9485 218.219 13.3657L219.657 14.1428C219.463 14.5314 219.191 14.8034 218.996 15.1142C218.724 15.3862 218.53 15.5805 218.219 15.7748C217.908 15.969 217.636 16.0467 217.248 16.1633C216.976 16.241 216.587 16.241 216.199 16.241C215.033 16.241 214.178 15.8525 213.479 15.1919C212.818 14.4148 212.43 13.56 212.43 12.2777C212.43 10.9955 212.702 10.1407 213.401 9.36356C214.062 8.70301 214.955 8.31445 216.004 8.31445C217.054 8.31445 218.025 8.70301 218.608 9.36356C219.268 10.0241 219.579 10.9955 219.579 12.2777V12.744H219.657L219.696 12.7829ZM217.947 11.3452C217.675 10.3738 217.092 9.98526 216.199 9.98526C215.305 9.98526 215.81 9.98525 215.616 10.063C215.422 10.1407 215.227 10.2572 215.15 10.335C214.955 10.4127 214.878 10.6069 214.761 10.7235C214.683 10.9178 214.567 11.1121 214.489 11.3063H217.986L217.947 11.3452Z" fill="#1B1A32"/>
<path d="M223.155 2.99219H221.406V16.0477H223.155V2.99219Z" fill="#1B1A32"/>
<path d="M224.902 12.3168C224.902 11.2677 225.291 10.2963 226.068 9.51919C226.845 8.74207 227.817 8.35352 228.866 8.35352C229.915 8.35352 230.886 8.74207 231.78 9.51919C232.557 10.2963 232.945 11.2677 232.945 12.3168C232.945 13.3659 232.557 14.3373 231.78 15.1144C231.003 15.8915 230.031 16.2801 228.866 16.2801C227.7 16.2801 226.845 15.8915 226.068 15.1144C225.291 14.4539 224.902 13.4825 224.902 12.3168ZM226.651 12.3168C226.651 13.0939 226.845 13.6768 227.234 14.0653C227.622 14.5316 228.205 14.7258 228.866 14.7258C229.526 14.7258 230.109 14.5316 230.498 14.0653C230.886 13.599 231.08 13.0162 231.08 12.3168C231.08 11.6174 230.886 10.9569 230.498 10.5683C230.109 10.102 229.526 9.90774 228.866 9.90774C228.205 9.90774 227.7 10.102 227.234 10.5683C226.845 11.0346 226.651 11.6174 226.651 12.3168Z" fill="#1B1A32"/>
<path d="M236.327 20.1672H234.578V8.54933H236.327V9.32644C236.987 8.66589 237.764 8.27734 238.658 8.27734C239.552 8.27734 240.601 8.6659 241.184 9.44301C241.844 10.2201 242.233 11.1915 242.233 12.3572C242.233 13.5229 241.961 14.3777 241.261 15.1548C240.562 15.9319 239.707 16.3205 238.736 16.3205C237.764 16.3205 237.104 15.9319 236.404 15.2714V20.206H236.327V20.1672ZM240.484 12.396C240.484 11.7355 240.29 11.0361 239.901 10.6475C239.513 10.1813 239.047 9.98699 238.464 9.98699C237.881 9.98699 237.298 10.1813 236.909 10.6475C236.521 11.1138 236.327 11.6966 236.327 12.396C236.327 13.0954 236.521 13.6394 236.909 14.1445C237.298 14.6497 237.764 14.8051 238.464 14.8051C239.163 14.8051 239.513 14.6108 239.901 14.1445C240.29 13.6783 240.484 13.0954 240.484 12.396Z" fill="#1B1A32"/>
<path d="M243.98 8.54779H245.729V9.20835C246.001 8.81979 246.312 8.62551 246.584 8.54779C246.856 8.47008 247.167 8.35352 247.555 8.35352C248.41 8.35352 249.109 8.74208 249.576 9.40262C250.159 8.62551 250.819 8.35352 251.79 8.35352C253.539 8.35352 254.316 9.40262 254.316 11.462V16.1247H252.568V11.9671C252.568 11.3066 252.49 10.7237 252.296 10.4129C252.101 10.1409 251.829 9.9466 251.441 9.9466C251.052 9.9466 250.586 10.1409 250.392 10.5294C250.197 10.918 250.12 11.5008 250.12 12.2779V16.1635H248.371V12.0059C248.371 10.646 247.983 9.98546 247.205 9.98546C246.428 9.98546 246.351 10.1797 246.156 10.5683C245.962 10.9569 245.884 11.5397 245.884 12.3168V16.2024H244.136V8.66437H244.058L243.98 8.54779Z" fill="#1B1A32"/>
<path d="M263.176 12.7829H257.736C257.736 13.3657 258.008 13.832 258.319 14.2205C258.708 14.6091 259.096 14.8034 259.679 14.8034C260.262 14.8034 260.456 14.7256 260.728 14.5314C261 14.3371 261.311 13.9485 261.7 13.3657L263.137 14.1428C262.943 14.5314 262.671 14.8034 262.477 15.1142C262.205 15.3862 262.01 15.5805 261.7 15.7748C261.389 15.969 261.117 16.0467 260.728 16.1633C260.456 16.241 260.068 16.241 259.679 16.241C258.513 16.241 257.659 15.8525 256.959 15.1919C256.299 14.4148 255.91 13.56 255.91 12.2777C255.91 10.9955 256.182 10.1407 256.882 9.36356C257.542 8.70301 258.436 8.31445 259.485 8.31445C260.534 8.31445 261.505 8.70301 262.088 9.36356C262.749 10.0241 263.06 10.9955 263.06 12.2777V12.744H263.137L263.176 12.7829ZM261.428 11.3452C261.156 10.3738 260.573 9.98526 259.679 9.98526C258.785 9.98526 259.291 9.98525 259.096 10.063C258.902 10.1407 258.708 10.2572 258.63 10.335C258.436 10.4127 258.358 10.6069 258.241 10.7235C258.164 10.9178 258.047 11.1121 257.97 11.3063H261.467L261.428 11.3452Z" fill="#1B1A32"/>
<path d="M264.885 8.54779H266.633V9.20835C267.216 8.62551 267.877 8.35352 268.654 8.35352C269.431 8.35352 270.208 8.62551 270.674 9.20835C271.063 9.67461 271.335 10.4517 271.335 11.5397V16.2024H269.586V11.9282C269.586 11.1511 269.509 10.6849 269.314 10.374C269.12 10.102 268.731 9.98546 268.265 9.98546C267.799 9.98546 267.294 10.1797 267.022 10.5683C266.828 10.9569 266.633 11.6174 266.633 12.5111V16.0858H264.885V8.54779Z" fill="#1B1A32"/>
<path d="M275.26 10.18V16.086H273.511V10.18H272.734V8.54802H273.511V5.82812H275.26V8.54802H276.62V10.18H275.26Z" fill="#1B1A32"/>
<path d="M65.9046 29.7242C65.9046 29.1414 65.9046 28.7528 66.2932 28.3643C66.5652 27.898 67.0703 27.7037 67.6531 27.7037C68.236 27.7037 68.7022 27.9757 69.0131 28.6751L70.373 28.2865C69.7902 26.9266 68.8188 26.3438 67.5754 26.3438C66.332 26.3438 65.7492 26.6157 65.2441 27.1986C64.467 27.9757 64.195 29.3356 64.2727 31.0842H69.2074V31.939C69.2074 32.9881 68.8188 33.8817 68.0417 34.5423C67.2646 35.3194 66.4098 35.5914 65.3218 35.5914C64.2338 35.5914 63.3013 35.2028 62.5242 34.5423C61.7471 33.8817 61.3585 32.9881 61.3585 31.939V29.7242H59.7266V32.0555C59.7266 33.4932 60.1928 34.7754 61.3585 35.7468C62.4076 36.7182 63.7676 37.3011 65.3218 37.3011C66.876 37.3011 68.1194 36.8348 69.2074 35.7468C70.2953 34.6589 70.8393 33.5321 70.8393 32.0555V29.7242H65.7881H65.8658H65.9046Z" fill="#1B1A32"/>
<path d="M77.2125 26.5391V31.7846C77.2125 32.9503 76.824 33.9994 76.0469 34.7765C75.2698 35.5536 74.2207 35.9421 72.9384 35.9421H72.7441V36.1364C73.1327 36.7193 73.327 37.1078 73.4047 37.3021C74.9589 37.3021 76.3189 36.6416 77.2903 35.5536C78.2617 34.4656 78.7279 33.1445 78.7279 31.5903V26.5391H77.096H77.1737H77.2125Z" fill="#1B1A32"/>
<path d="M101.536 34.4648H99.7871V36.0968H101.536V34.4648Z" fill="#1B1A32"/>
<path d="M115.952 23.625H114.203V25.2569H115.952V23.625Z" fill="#1B1A32"/>
<path d="M118.477 23.625H116.729V25.2569H118.477V23.625Z" fill="#1B1A32"/>
<path d="M127.764 24.1296V21.604C127.764 21.5263 126.132 21.5263 126.132 21.5263V31.0071C126.132 31.6677 125.666 32.0562 124.889 32.0562H118.788C118.4 32.0562 118.128 31.8619 117.817 31.5899C117.428 31.2014 117.234 30.7351 117.234 30.1523V26.6553H115.602C115.68 29.6472 115.68 30.8128 115.602 30.9294C115.602 31.318 115.408 31.5899 115.019 31.7842C114.747 31.9785 114.437 32.0562 114.048 32.0562H106.316C106.121 30.502 105.655 29.142 104.956 28.1706C103.984 26.9273 102.624 26.3444 100.876 26.3444C99.1274 26.3444 98.8554 26.6164 97.5731 27.1215H97.4954L98.156 28.4815H98.2337C99.0885 27.8987 100.06 27.7044 100.954 27.7044C101.847 27.7044 102.702 28.0929 103.479 28.87C104.256 29.6472 104.645 30.6963 104.645 31.9785H85.2947C84.7119 31.9785 84.4399 31.5899 84.4399 30.9294V21.332H82.6914V31.0071C82.6914 31.6677 83.08 32.2505 83.4685 32.7556C83.8571 33.1442 84.3233 33.3385 85.0227 33.3385H114.553C115.602 33.3385 116.574 32.7556 117.079 32.0951C117.156 32.2893 117.273 32.4836 117.467 32.6779C117.934 33.1442 118.439 33.455 119.099 33.455H125.2C126.948 33.455 127.997 32.4836 127.997 30.9294V27.3547L127.803 24.2462V24.1685L127.764 24.1296Z" fill="#1B1A32"/>
<path d="M132.349 21.4102H130.678L130.794 33.3389V33.4166H132.426L132.349 21.5267V21.4102Z" fill="#1B1A32"/>
<path d="M150.649 34.4648H148.9V36.0968H150.649V34.4648Z" fill="#1B1A32"/>
<path d="M153.252 26.5387H151.621C151.621 29.8414 151.698 30.6185 151.698 30.8905C151.698 31.551 151.232 31.9396 150.455 31.9396H144.743C144.471 31.9396 144.083 31.9396 143.772 31.4733C143.383 31.2013 143.189 30.6962 143.189 30.2299V26.4609H141.557V31.7065C141.557 32.8721 141.168 33.8435 140.391 34.6984C139.614 35.4755 138.565 35.9417 137.283 35.9417H137.205V36.136C137.594 36.7189 137.788 37.1074 137.866 37.3017H137.943C139.381 37.3017 140.663 36.6411 141.635 35.7475C142.489 34.8926 143.072 33.8047 143.189 32.4447C143.655 33.0276 144.238 33.2995 144.937 33.2995H150.377C151.232 33.2995 152.009 33.1053 152.514 32.639C152.98 32.2504 153.291 31.5899 153.291 30.8128V26.4609V26.5387H153.252Z" fill="#1B1A32"/>
<path d="M148.202 34.4648H146.453V36.0968H148.202V34.4648Z" fill="#1B1A32"/>
<path d="M202.055 23.625H200.307V25.2569H202.055V23.625Z" fill="#1B1A32"/>
<path d="M204.465 23.625H202.717V25.2569H204.465V23.625Z" fill="#1B1A32"/>
<path d="M223.27 24.0131V21.4875C223.27 21.4098 221.638 21.4097 221.638 21.4097V30.8905C221.638 31.5511 221.172 31.9396 220.395 31.9396H217.208C216.82 31.9396 216.548 31.7454 216.237 31.4734C215.848 31.0848 215.654 30.6963 215.654 30.23C215.576 27.1215 215.576 24.4016 215.576 22.1091V21.332H213.944C214.022 24.5182 214.022 28.0152 214.022 30.8128C214.022 33.6104 213.828 31.4734 213.556 31.6677C213.284 31.8619 212.895 31.9396 212.585 31.9396H206.95C206.562 31.9396 206.29 31.7454 205.979 31.4734C205.59 31.0848 205.396 30.6186 205.396 30.0357V26.6553H203.764C203.842 29.6472 203.842 30.8128 203.764 30.9294C203.764 31.318 203.57 31.5899 203.181 31.7842C202.909 31.9785 202.599 32.0562 202.21 32.0562H190.398C190.204 28.6758 188.766 26.733 185.929 26.5387C184.958 26.5387 183.987 26.5387 183.015 27.1215C181.772 27.7044 180.684 28.6758 179.907 30.0357L180.101 22.3811H178.469V31.9785H163.665V29.4529C163.665 27.4324 162.616 26.461 160.362 26.461C158.109 26.461 158.808 26.733 158.148 27.2381C157.293 27.8987 156.904 28.87 156.904 30.0357C156.904 31.2014 157.176 31.7842 157.759 32.4448C158.342 33.1053 159.119 33.4162 160.09 33.4162H161.722C161.45 34.1933 160.945 34.7761 160.285 35.2424C159.624 35.7086 158.73 36.0195 157.759 36.0195H157.565V36.2138C157.837 36.6023 157.953 36.7966 158.031 37.0686C158.109 37.0686 158.109 37.2629 158.225 37.3406H158.303C160.829 37.1463 162.655 35.7086 163.354 33.3773H202.365C203.415 33.3773 204.386 32.7945 204.891 32.1339C204.969 32.3282 205.085 32.5225 205.28 32.7167C205.746 33.183 206.251 33.4939 206.912 33.4939H212.74C213.789 33.4939 214.76 32.911 215.266 32.2505C215.343 32.4448 215.46 32.6391 215.654 32.8333C216.12 33.2996 216.625 33.6104 217.286 33.6104H220.395C222.143 33.6104 223.192 32.6391 223.192 31.0848V24.0131H223.27ZM188.611 31.9785H180.179C181.539 29.1809 183.287 27.8987 185.502 27.8987H185.774C186.94 27.8987 187.795 28.6758 188.183 30.0357C188.377 30.6186 188.572 31.2791 188.572 31.9785M162.072 29.0643V31.9785H160.518C159.469 31.9785 158.769 31.1237 158.769 29.958C158.769 28.7923 158.964 28.5981 159.352 28.2095C159.741 27.8209 160.129 27.6267 160.596 27.6267C161.567 27.6267 162.033 28.0929 162.033 29.0643" fill="#1B1A32"/>
<path d="M228.866 37.4957H228.944C230.381 37.4957 231.663 36.9128 232.635 36.058C233.49 35.2032 234.072 34.1152 234.189 32.7553C234.655 33.3381 235.238 33.6101 235.938 33.6101H241.455C242.31 33.6101 243.087 33.4158 243.592 32.9496C244.058 32.561 244.369 31.9004 244.369 31.1233C244.369 31.1233 244.369 29.6857 244.292 26.8492H242.66V31.201C242.66 31.8616 242.193 32.2502 241.416 32.2502H235.976C235.704 32.2502 235.316 32.2501 235.005 31.7839C234.616 31.5119 234.422 31.0068 234.422 30.5405V26.7715H232.79V32.017C232.79 33.1827 232.402 34.1541 231.625 35.0089C230.77 35.786 229.798 36.2523 228.516 36.2523H228.244V36.4466C228.633 37.0294 228.827 37.418 228.905 37.6122" fill="#1B1A32"/>
<path d="M243.709 34.6602H241.961V36.2921H243.709V34.6602Z" fill="#1B1A32"/>
<path d="M241.26 34.6602H239.512V36.2921H241.26V34.6602Z" fill="#1B1A32"/>
<path d="M270.325 34.582H268.576V36.214H270.325V34.582Z" fill="#1B1A32"/>
<path d="M270.054 26.5387C269.082 26.5387 268.033 26.8106 266.751 27.3158H266.673L267.334 28.6757H267.412C268.266 28.0929 269.238 27.8986 270.132 27.8986C271.025 27.8986 271.958 28.2872 272.657 29.0643C273.434 29.8414 273.823 30.8905 273.823 32.1727H252.219C251.947 32.1727 251.558 32.1727 251.248 31.7065C250.859 31.4345 250.665 30.9293 250.665 30.4631V26.6941H249.033V31.9396C249.033 33.1053 248.644 34.0767 247.867 34.9315C247.09 35.7086 246.041 36.1749 244.759 36.1749H244.564V36.3691C244.953 36.952 245.147 37.3405 245.225 37.5348H245.303C246.74 37.5348 248.023 36.8743 248.994 35.9806C249.849 35.1258 250.432 34.0378 250.548 32.6779C251.015 33.2607 251.597 33.5327 252.297 33.5327H275.455C275.455 31.5122 275.066 29.958 274.406 28.7923C273.551 27.2381 272.074 26.4609 270.054 26.4609" fill="#1B1A32"/>
<path d="M39.1719 12.3169V33.4156L51.9554 38.6611V5.43945L39.1719 12.3169Z" fill="#1B1A32"/>
<path d="M37.3462 33.2218V12.5117L0.744141 3.69141V39.3221L22.0371 35.8251L22.1148 17.8349L30.7407 18.884V34.2708L37.3462 33.2218Z" fill="#1B1A32"/>
</svg>
