<svg width="1440" height="289" viewBox="0 0 1440 289" fill="none" xmlns="http://www.w3.org/2000/svg">
<g opacity="0.4">
<path d="M1238.31 136.025C1232.29 136.349 1226.2 136.334 1220.08 135.981C1203.31 135.135 1184.52 132.318 1167.94 129.849C1154.64 127.868 1142.1 126 1132.65 125.438C1125.9 125.027 1119.03 124.644 1112.38 124.265C1074.46 122.133 1035.25 119.93 996.771 113.153C981.911 110.535 966.589 105.823 951.77 101.257C929.664 94.4599 906.802 87.4216 885.385 87.3925C866.531 87.3669 847.279 93.7293 828.655 99.8781C815.388 104.26 801.66 108.79 788.433 110.844C769.279 113.847 749.811 113.071 730.99 112.358C715.99 111.786 700.473 111.199 685.117 112.473C660.506 114.507 643.147 123.905 626.363 132.991C619.167 136.907 612.045 140.743 604.596 143.905C600.567 146.338 596.096 148.188 591.318 149.399C587.255 150.401 582.998 150.912 578.65 150.92C568.45 152.004 557.874 151.384 547.424 149.089C525.173 144.46 504.007 138.339 483.51 132.428C454.968 124.174 428.002 116.382 400.243 113.056C386.045 111.29 371.88 110.933 358.005 111.989C342.658 113.246 327.798 116.261 313.764 120.964C290.393 128.639 268.25 142.466 246.845 155.84C228.441 167.34 209.406 179.219 189.343 187.456C179.505 191.61 169.055 194.722 158.177 196.738C147.217 198.737 135.765 199.172 124.208 198.028C104.876 196.114 79.9962 179.507 55.8505 163.458C42.1276 154.333 27.9444 144.893 14.9218 138.218C9.91701 135.605 4.72467 133.369 -0.595485 131.535C-11.7144 130.832 -24.299 133.486 -39.6408 141.291L-39.9943 141.469L-39.7896 141.161C-34.8511 133.685 -28.5107 129.58 -20.3869 128.61C-14.7343 127.928 -8.19193 128.804 -0.579461 131.376C18.7809 132.585 33.512 143.956 49.6611 156.4C67.7557 170.357 88.3115 186.168 119.303 189.985C141.962 192.784 165.558 189.542 191.421 180.096C214.321 171.726 236.25 159.608 257.529 147.88C277.053 137.101 295.489 126.916 314.049 119.817C349.581 106.224 384.864 102.78 425.068 108.99C460.718 114.5 495.899 126.728 538.19 142.131C554.294 147.991 567.475 150.84 578.628 150.819C587.757 149.699 596.476 147.337 604.505 143.809C610.456 140.274 615.755 135.722 621.505 130.745C634.832 119.199 649.938 106.119 680.18 101.162C697.51 98.3241 714.83 98.9791 731.585 99.6218C752.371 100.402 773.869 101.223 795.778 95.4329C804.451 93.1426 812.965 90.3061 821.218 87.5594C840.263 81.2186 859.964 74.6532 882.34 74.6989C929.998 74.7917 981.374 86.1389 1031.06 97.115C1070.63 105.855 1111.53 114.885 1150.37 118.213C1156.83 118.751 1164.27 119.703 1172.15 120.693C1203.91 124.696 1243.45 129.677 1262.77 115.39C1273.68 107.324 1276.5 93.9539 1279.24 81.0518C1281.11 72.1388 1283.06 62.9248 1287.62 55.5361C1291.88 48.7218 1300.26 42.3914 1311.82 37.2601C1323.99 32.0863 1337.06 28.4676 1350.71 26.4946C1364.71 24.2917 1379.17 23.6501 1393.79 24.5833C1408.31 25.6197 1421.08 28.5028 1430.77 32.886C1448.71 41.072 1455.73 54.2403 1451.05 70.9363L1451.08 71.0369L1450.96 70.9788C1421.86 54.7648 1396.83 45.9389 1374.46 44.0032C1362.05 42.8504 1349.86 44.091 1338.69 47.6426C1326.91 51.4444 1316.03 58.045 1306.35 67.26C1298.66 74.5957 1293.47 85.3381 1288.46 95.7273C1281.76 109.608 1274.83 123.966 1261.75 130.81C1255.97 133.668 1248.29 135.426 1238.31 136.025ZM879.921 87.3686C881.737 87.2595 883.543 87.1974 885.353 87.1999C906.801 87.2272 929.684 94.2735 951.812 101.078C966.619 105.636 981.969 110.383 996.782 112.967C1035.25 119.736 1074.45 121.939 1112.36 124.081C1119.01 124.45 1125.88 124.834 1132.64 125.244C1142.09 125.815 1154.64 127.683 1167.95 129.663C1184.52 132.133 1203.27 134.953 1220.06 135.797C1239.29 136.791 1252.83 135.079 1261.45 130.532C1274.47 123.71 1281.4 109.38 1288.06 95.5195C1293.08 85.1206 1298.28 74.3593 1306.03 67.0109C1315.72 57.7764 1326.63 51.1557 1338.44 47.3522C1349.63 43.7911 1361.84 42.5457 1374.28 43.6989C1396.66 45.6339 1421.68 54.4512 1450.76 70.6019C1455.35 54.0405 1448.39 41.0082 1430.55 32.9082C1420.94 28.5203 1408.2 25.6634 1393.71 24.6252C1379.11 23.6911 1364.66 24.3317 1350.68 26.5335C1337.06 28.5057 1324.01 32.1166 1311.87 37.276C1300.29 42.4085 1291.93 48.7096 1287.66 55.4971C1283.09 62.8212 1281.18 72.0237 1279.27 80.9202C1276.53 93.8869 1273.71 107.285 1262.76 115.381C1243.36 129.71 1203.79 124.722 1171.99 120.713C1164.11 119.722 1156.67 118.788 1150.22 118.231C1111.36 114.914 1070.46 105.874 1030.88 97.1348C981.209 86.1673 929.843 74.8195 882.205 74.7255C859.869 74.6774 840.186 81.2325 821.16 87.5721C812.918 90.3182 804.393 93.1554 795.721 95.4456C773.784 101.247 752.266 100.427 731.468 99.6381C714.725 99.004 697.414 98.3484 680.104 101.185C649.92 106.129 634.832 119.199 621.521 130.725C616.134 135.384 611.163 139.685 605.675 143.127C612.685 140.075 619.372 136.459 626.175 132.771C642.986 123.674 660.374 114.265 685.064 112.226C700.429 110.951 715.946 111.538 730.957 112.11C749.77 112.833 769.208 113.518 788.36 110.598C801.567 108.545 815.285 104.016 828.554 99.6433C845.416 94.1284 862.794 88.3973 879.921 87.3686ZM0.0772517 131.578C5.19138 133.39 10.1847 135.569 15.0052 138.092C28.0478 144.766 42.2328 154.215 55.9598 163.359C80.038 179.374 104.931 195.953 124.214 197.87C135.746 198.995 147.171 198.547 158.103 196.539C168.983 194.525 179.433 191.412 189.27 187.256C209.305 179.031 228.33 167.152 246.773 155.65C257.595 148.886 268.614 142.009 279.872 135.867C272.571 139.714 265.171 143.799 257.62 147.977C236.371 159.703 214.414 171.878 191.485 180.203C165.584 189.661 141.958 192.904 119.237 190.1C88.1784 186.296 67.6286 170.467 49.4903 156.494C33.5733 144.24 19.0147 133.016 0.0772517 131.578ZM361.658 111.594C374.369 110.861 387.296 111.298 400.249 112.898C428.03 116.232 455.005 124.024 483.558 132.277C504.009 138.163 525.179 144.302 547.414 148.951C557.269 151.08 567.233 151.734 576.893 150.886C566.08 150.665 553.393 147.823 538.073 142.24C495.792 126.836 460.622 114.617 424.994 109.115C384.83 102.902 349.587 106.344 314.083 119.926C307.936 122.278 301.813 124.97 295.7 127.894C301.519 125.212 307.536 122.838 313.725 120.781C327.783 116.089 342.666 113.086 358.032 111.839C359.189 111.751 360.408 111.669 361.639 111.595L361.658 111.594ZM580.432 150.701C584.133 150.579 587.754 150.086 591.231 149.228C595.483 148.153 599.487 146.558 603.143 144.483C596.025 147.476 588.385 149.567 580.412 150.703L580.432 150.701ZM-18.6008 128.596C-19.2095 128.632 -19.8009 128.686 -20.3752 128.758C-28.2925 129.706 -34.5197 133.683 -39.4004 140.915C-24.543 133.427 -12.1827 130.758 -1.27003 131.297C-7.84697 129.191 -13.5796 128.294 -18.6207 128.597L-18.6008 128.596Z" fill="white"/>
<path d="M146.433 225.336C132.108 226.192 117.375 223.554 101.76 217.369C83.524 210.17 66.3464 199.105 49.734 188.421C19.5349 169.045 -9.01043 150.666 -38.5396 159.06L-38.7479 159.119L-38.6783 158.93C-36.0674 152.126 -23.0979 152.014 1.00766 158.613C22.142 164.396 48.5838 174.345 74.1588 183.96C107.144 196.364 138.302 208.086 150.357 207.651C165.067 207.132 179.732 202.895 196.508 194.314C211.323 186.743 225.42 177.024 240.349 166.74C265.029 149.721 290.558 132.127 319.229 125.378C351.733 117.727 383.428 117.169 418.898 123.623C450.873 129.439 483.077 140.472 517.178 152.138L526.797 155.431C549.937 163.322 567.327 165.331 581.532 161.747C594.546 158.465 603.909 150.917 614.741 142.175C626.85 132.418 640.567 121.368 662.924 113.448C684.496 105.806 708.146 107.303 733.181 108.883C751.377 110.025 770.196 111.212 788.14 108.557C802.9 106.376 817.106 101.964 830.845 97.7179C843.016 93.9336 855.604 90.0323 868.492 87.697C896.901 82.5652 916.163 87.5015 940.553 93.7431C950.494 96.2986 960.773 98.9261 972.921 101.23C1007.66 107.83 1043.92 109.964 1078.98 112.023C1091.6 112.77 1104.65 113.538 1117.28 114.505C1129.23 115.412 1143.69 117.808 1159.01 120.346C1189.87 125.455 1224.86 131.248 1246.79 125.628C1255.56 123.383 1263.21 119.122 1270.17 112.519C1276.39 106.622 1281.57 99.4611 1286.57 92.5136C1291.82 85.2479 1297.23 77.7327 1303.98 71.445C1315.63 60.7373 1330.08 52.7584 1346.33 48.0578C1363.37 43.2185 1380.26 42.771 1395.36 46.759C1417.43 52.5776 1434.17 67.5728 1443.79 90.1214L1443.8 90.2032L1443.71 90.2091C1426.67 94.5419 1408.23 89.4273 1390.4 84.479C1374.42 80.0469 1359.32 75.8565 1345.18 77.972C1324.78 80.9583 1316.48 90.0824 1306.89 100.647C1301.74 106.612 1296.02 112.136 1289.78 117.167C1271.66 131.298 1245.41 138.713 1209.53 139.825C1178.12 140.781 1144.46 136.98 1111.93 133.288C1092.64 131.107 1074.44 129.081 1058.15 128.212C1030.82 126.77 1003.09 122.689 976.276 118.747C950.76 114.995 924.37 111.11 898.929 109.646C870.505 108.011 846.085 109.626 824.281 114.584C799.557 120.214 771.846 118.711 745.05 117.254C725.373 116.192 705.025 115.087 686.701 116.964C677.615 117.806 668.809 119.614 660.458 122.353C651.986 125.162 644.234 129.217 637.485 134.371C630.073 140.035 623.67 145.574 617.487 150.925C604.504 162.162 593.286 171.856 578.641 177.345C562.713 183.306 543.833 183.641 519.315 178.384C494.24 173.012 471.497 163.246 449.506 153.804C410.825 137.154 374.334 121.469 329.026 130.318C292.8 137.399 266.488 158.097 241.043 178.117C229.062 187.535 216.695 197.261 203.625 205.28C188.93 214.28 174.711 220.203 160.251 223.397C155.763 224.396 151.141 225.044 146.433 225.336ZM-26.8619 156.889C-1.36629 155.366 23.598 171.418 49.8333 188.277C66.4339 198.953 83.6055 209.99 101.826 217.208C122.433 225.37 141.501 227.334 160.136 223.238C174.608 220.053 188.783 214.16 203.435 205.144C216.552 197.113 228.919 187.387 240.873 177.98C266.335 157.95 292.663 137.232 328.958 130.147C374.262 121.28 410.835 136.969 449.56 153.589C471.538 163.023 494.27 172.78 519.325 178.153C572.476 189.528 591.289 173.256 617.325 150.732C623.518 145.381 629.913 139.851 637.322 134.178C644.09 129.01 651.863 124.944 660.359 122.129C668.72 119.381 677.539 117.569 686.639 116.728C705.023 114.847 725.382 115.952 745.06 117.023C771.844 118.472 799.535 119.976 824.241 114.356C846.059 109.37 870.494 107.772 898.947 109.406C924.388 110.87 950.758 114.755 976.294 118.507C1003.1 122.43 1030.84 126.529 1058.16 127.973C1074.43 128.843 1092.66 130.894 1111.94 133.048C1144.47 136.731 1178.12 140.55 1209.52 139.578C1245.35 138.468 1271.57 131.064 1289.66 116.963C1296.81 111.378 1301.87 105.827 1306.75 100.453C1316.38 89.8678 1324.7 80.7237 1345.15 77.7248C1359.34 75.6433 1374.47 79.8319 1390.48 84.281C1408.25 89.205 1426.62 94.3055 1443.58 90.0326C1433.98 67.584 1417.31 52.6768 1395.34 46.8705C1380.29 42.8983 1363.42 43.344 1346.44 48.1803C1330.19 52.8775 1315.74 60.8601 1304.1 71.576C1297.35 77.845 1291.94 85.3601 1286.71 92.6253C1281.7 99.5733 1276.53 106.761 1270.28 112.65C1263.29 119.247 1255.62 123.545 1246.83 125.801C1224.85 131.424 1189.84 125.632 1158.95 120.515C1143.65 117.985 1129.19 115.589 1117.26 114.718C1104.62 113.751 1091.57 112.983 1078.95 112.236C1043.88 110.169 1007.62 108.034 972.867 101.445C960.707 99.1326 950.427 96.496 940.487 93.9496C916.129 87.7154 896.849 82.7433 868.527 87.9067C855.649 90.2414 843.071 94.1421 830.898 97.9173C817.153 102.182 802.938 106.595 788.163 108.758C770.2 111.415 751.361 110.229 733.153 109.079C708.14 107.506 684.512 106.017 662.985 113.638C640.656 121.547 626.909 132.599 614.858 142.343C603.998 151.096 594.627 158.654 581.575 161.947C567.337 165.561 549.902 163.526 526.718 155.62L517.088 152.327C482.998 140.661 450.805 129.637 418.85 123.819C383.412 117.372 351.767 117.927 319.263 125.578C290.63 132.316 265.118 149.9 240.446 166.909C225.519 177.203 211.413 186.922 196.589 194.502C179.783 203.085 165.088 207.324 150.351 207.854C138.254 208.282 107.076 196.562 74.0595 184.15C24.1985 165.396 -32.2848 144.146 -38.4461 158.843C-34.7353 157.792 -30.8498 157.137 -26.8619 156.889Z" fill="white"/>
<path d="M147.886 242.453C131.802 243.417 114.652 240.202 95.5676 232.648C77.3477 225.421 59.1029 215.062 41.459 205.018C15.2828 190.106 -11.7939 174.703 -39.2389 169.434L-39.5325 169.378L-39.2863 169.261C-9.87378 155.583 21.4599 174.864 54.63 195.291C70.5239 205.097 86.9909 215.23 103.824 222.041C122.817 229.73 139.738 232.025 155.598 229.05C169.514 226.432 182.948 220.746 196.622 211.672C208.863 203.544 220.282 193.477 231.324 183.711C255.999 161.896 281.518 139.384 319.591 134.736C337.569 132.54 356.713 134.008 378.123 139.214C397.222 143.864 416.411 151.015 434.954 157.927C460.901 167.602 487.723 177.604 515.262 181.176C571.439 188.467 587.234 171.316 607.222 149.533C616.78 139.134 627.606 127.347 644.389 116.941C675.982 97.318 723.069 105.754 768.622 113.977C790.588 117.939 811.398 121.673 830.19 122.303C864.193 123.463 898.566 123.64 931.813 123.819C985.456 124.098 1040.93 124.396 1096.18 128.803C1113.37 130.176 1130.57 132.667 1147.2 135.071C1176.1 139.292 1203.44 143.246 1229.17 141.38C1242.1 140.568 1254.53 137.908 1266.04 133.494C1278.62 128.524 1289.81 121.43 1299.08 112.546C1314.03 98.5431 1326.65 87.6189 1339.64 79.7968C1354.28 70.9795 1368.07 67.1674 1381.89 68.1318C1402.45 69.5802 1424.23 81.6961 1448.5 105.19L1448.63 105.33L1448.45 105.34C1439.64 106.072 1431.05 106.43 1422.72 106.781C1396.45 107.875 1371.64 108.918 1347.56 121.408C1336.84 126.967 1328.23 133.852 1319.91 140.517C1303.5 153.637 1288 166.028 1259.73 164.986C1238.73 164.202 1215.46 157.407 1192.96 150.834C1175.68 145.788 1157.81 140.564 1141.2 138.149C1100.72 132.256 1057.34 129.855 1004.69 130.543C977.791 130.889 950.403 132.984 923.915 135.015C882.576 138.177 839.874 141.448 797.499 138.248C776.942 136.707 758.477 132.712 740.628 128.864C718.994 124.208 698.573 119.812 679.296 121.3C657.954 122.958 639.962 131.635 622.675 148.625C617.372 153.842 612.683 159.059 608.148 164.11C599.358 173.88 591.057 183.168 580.588 189.406C569.019 196.321 555.793 198.925 539.09 197.588C506.36 194.974 474.959 184.572 444.635 174.502C423.131 167.38 400.911 160.013 378.555 155.549C353.507 150.58 330.858 149.774 309.343 153.227C275.848 158.543 252.416 179.045 229.77 198.861C218.421 208.785 206.69 219.037 194.066 226.929C179.898 235.765 165.983 240.758 151.417 242.186C150.173 242.288 149.037 242.384 147.886 242.453ZM-38.951 169.324C-11.5419 174.66 15.4575 190.031 41.5623 204.892C59.1943 214.927 77.4351 225.314 95.6392 232.515C116.031 240.536 134.243 243.687 151.27 242.019C165.807 240.593 179.734 235.608 193.836 226.795C206.46 218.903 218.181 208.652 229.53 198.774C252.21 178.928 275.671 158.425 309.214 153.096C330.755 149.669 353.428 150.446 378.496 155.413C400.871 159.877 423.103 167.252 444.607 174.374C474.929 184.435 506.33 194.837 539.058 197.442C555.72 198.772 568.868 196.182 580.433 189.295C590.893 183.058 599.194 173.816 607.969 164.028C612.502 158.968 617.19 153.742 622.493 148.525C639.816 131.514 657.833 122.818 679.224 121.157C698.549 119.656 718.984 124.07 740.628 128.725C758.468 132.574 776.929 136.551 797.467 138.102C839.793 141.305 882.525 138.032 923.844 134.871C950.341 132.84 977.733 130.717 1004.64 130.398C1057.3 129.71 1100.68 132.129 1141.18 138.011C1157.78 140.427 1175.69 145.649 1192.97 150.695C1215.5 157.266 1238.72 164.064 1259.69 164.84C1287.9 165.923 1303.36 153.506 1319.73 140.407C1328.06 133.743 1336.68 126.857 1347.41 121.287C1371.52 108.75 1396.36 107.732 1422.63 106.611C1430.89 106.264 1439.43 105.909 1448.16 105.192C1424 81.821 1402.29 69.7655 1381.88 68.3269C1368.13 67.3578 1354.35 71.1693 1339.74 79.9666C1326.77 87.7784 1314.16 98.702 1299.22 112.696C1289.92 121.593 1278.71 128.698 1266.11 133.675C1254.59 138.097 1242.13 140.762 1229.19 141.573C1203.46 143.42 1176.13 139.457 1147.16 135.268C1130.55 132.853 1113.33 130.373 1096.15 128.999C1040.91 124.591 985.428 124.294 931.785 124.015C898.577 123.833 864.175 123.659 830.162 122.499C811.349 121.861 790.568 118.125 768.555 114.175C723.049 105.986 675.999 97.5388 644.466 117.112C627.713 127.516 616.877 139.258 607.341 149.664C587.315 171.459 571.493 188.667 515.215 181.373C487.653 177.793 460.81 167.783 434.853 158.108C416.319 151.196 397.141 144.045 378.054 139.403C356.667 134.214 337.543 132.745 319.592 134.93C281.59 139.574 256.122 162.092 231.427 183.862C220.383 193.619 208.956 203.695 196.705 211.824C182.985 220.92 169.554 226.614 155.637 229.233C139.787 232.207 122.827 229.914 103.772 222.174C86.9154 215.392 70.4443 205.287 54.5029 195.446C21.4835 175.112 -9.71334 155.907 -38.951 169.324Z" fill="white"/>
<path d="M170.681 262.049C155.7 262.946 138.19 259.74 117.315 252.325C96.8888 245.03 75.3102 234.465 54.4515 224.253C22.9623 208.818 -9.6436 192.868 -37.8986 188.543L-38.5751 188.436L-37.9203 188.397C-21.559 186.495 -3.84607 188.692 16.2579 195.24C34.1659 201.07 52.2581 209.694 69.7472 218.041C88.1328 226.814 107.147 235.891 125.911 241.679C146.935 248.162 165.452 249.758 182.513 246.541C202.261 242.831 214.908 232.145 225.987 219.192C227.266 216.962 228.542 214.708 229.817 212.43C242.589 189.631 255.793 166.133 285.295 158.923C291.852 157.333 298.667 156.39 305.629 156.11C323.855 152.749 342.696 152.969 364.263 156.624C385.83 160.279 406.476 166.822 428.466 173.728C440.666 177.565 453.276 181.535 465.942 184.929C502.222 194.652 528.547 196.426 551.348 190.669C571.843 185.494 590.185 174.329 614.64 152.151C625.105 142.666 636.217 135.791 648.616 131.146C656.962 128.026 665.854 125.928 675.081 124.903C677.892 124.481 680.759 124.245 683.661 124.196L685.288 124.098C710.584 123.074 737.38 128.317 765.8 133.868C777.65 136.186 789.939 138.588 802.297 140.561C850.786 148.28 898.989 144.629 945.601 141.102C951.861 140.635 958.16 140.156 964.503 139.703C982.994 135.062 1001.47 131.355 1019.19 130.35C1041.31 129.109 1064.11 131.232 1088.94 136.86C1103.89 140.377 1118.72 144.59 1133.37 149.482C1192.81 159.848 1254.02 170.22 1298.17 152.814C1313.68 146.701 1327.74 135.626 1341.37 124.91C1358.22 111.629 1374.15 99.0774 1392.61 95.1586C1402.08 93.0351 1412.43 93.7043 1422.26 97.075C1433.48 100.851 1444.85 107.968 1457 118.83L1457.15 118.959L1456.95 118.971C1422.58 121.896 1394.37 136.659 1367.08 150.933C1350.63 159.539 1333.61 168.447 1315.62 174.488C1295.44 181.231 1276.04 183.703 1256.26 181.943C1219.8 178.7 1186.15 167.37 1153.63 156.417C1146.95 154.169 1140.19 151.897 1133.38 149.684L1131.29 149.302C1098.91 143.646 1068.25 138.311 1041.19 137.485C1015.59 136.71 989.867 138.111 964.678 139.905C953.983 142.584 943.285 145.577 932.719 148.525C893.773 159.409 853.512 170.668 815.948 166.189C791.013 163.225 769.097 153.233 747.918 143.584C728.344 134.661 709.865 126.245 691.266 124.645C688.78 124.426 686.301 124.337 683.842 124.379C680.925 124.553 678.067 124.724 675.291 125.084C671.081 125.721 667.008 126.747 663.131 128.146C653.132 131.716 643.557 137.751 633.86 146.608C631.243 148.998 628.697 151.346 626.236 153.625C607.584 170.815 592.849 184.384 574.011 193.17C553.703 202.635 530.523 205.489 498.842 202.42C471.8 199.794 442.08 189.688 413.345 179.911C391.5 172.471 368.909 164.789 347.339 160.285C331.99 157.079 318.215 155.754 305.833 156.31C303.533 156.731 301.244 157.209 298.969 157.745C268.233 164.964 252.877 185.075 238.032 204.529C234.167 209.595 230.362 214.575 226.344 219.263C221.018 228.578 215.606 237.262 208.803 244.497C199.254 254.637 188.612 260.109 175.347 261.687C173.688 261.823 172.199 261.958 170.681 262.049ZM-37.1901 188.427C-9.08212 192.909 23.2878 208.743 54.5589 224.053C75.4096 234.228 96.9842 244.822 117.391 252.117C140.273 260.307 159.188 263.364 175.099 261.471C188.355 259.894 198.961 254.442 208.486 244.331C215.012 237.353 220.32 229.017 225.472 220.062C214.538 232.666 201.985 242.995 182.59 246.619C165.5 249.838 146.953 248.244 125.877 241.709C107.135 236.021 88.0732 226.91 69.6955 218.127C52.1965 209.781 34.1262 201.165 16.236 195.324C-3.59227 188.889 -21.0591 186.622 -37.1901 188.427ZM1134.49 149.876C1140.9 151.965 1147.27 154.104 1153.56 156.228C1186.09 167.199 1219.69 178.494 1256.14 181.738C1275.88 183.5 1295.27 181.057 1315.41 174.298C1333.39 168.257 1350.36 159.362 1366.85 150.753C1394.1 136.49 1422.28 121.757 1456.6 118.78C1444.53 108.024 1433.24 100.967 1422.1 97.223C1412.3 93.8669 1401.98 93.2117 1392.55 95.3468C1374.13 99.217 1358.23 111.786 1341.38 125.057C1327.77 135.781 1313.71 146.865 1298.19 152.989C1254.29 170.297 1193.58 160.172 1134.49 149.876ZM306.968 156.03C319.064 155.638 332.383 156.991 347.204 160.081C368.794 164.584 391.387 172.274 413.23 179.705C441.965 189.483 471.665 199.59 498.685 202.208C530.317 205.28 553.467 202.427 573.748 192.974C592.559 184.208 607.29 170.667 625.919 153.46C628.441 151.186 630.947 148.84 633.555 146.451C643.265 137.566 652.858 131.52 662.878 127.949C665.627 126.96 668.474 126.155 671.4 125.538C663.527 126.665 655.93 128.593 648.747 131.286C636.366 135.921 625.272 142.785 614.835 152.259C590.344 174.458 571.984 185.633 551.459 190.81C528.582 196.59 502.224 194.846 465.936 185.086C453.278 181.682 440.66 177.722 428.45 173.886C406.468 166.97 385.707 160.453 364.277 156.78C343.206 153.188 324.777 152.925 306.97 156.039L306.968 156.03ZM303.714 156.363C297.457 156.728 291.331 157.635 285.417 159.073C255.98 166.297 242.827 189.755 230.071 212.442C228.968 214.4 227.9 216.337 226.79 218.258C230.54 213.817 234.115 209.128 237.747 204.371C252.618 184.897 267.981 164.73 298.782 157.535C300.636 157.092 302.496 156.691 304.361 156.334L303.714 156.363ZM687.396 124.175C688.622 124.222 689.854 124.296 691.094 124.406C709.732 126.003 728.235 134.437 747.821 143.369C769.009 153.017 790.882 162.992 815.787 165.959C853.308 170.422 893.551 159.174 932.469 148.3C942.702 145.436 953.07 142.546 963.426 139.924C957.449 140.356 951.515 140.797 945.623 141.248C899.001 144.776 850.788 148.427 802.267 140.701C789.88 138.73 777.622 136.335 765.76 134.009C738.115 128.651 712.064 123.548 687.403 124.212L687.396 124.175ZM981.963 138.51C1001.52 137.34 1021.31 136.645 1040.99 137.248C1068.06 138.073 1098.69 143.419 1131.12 149.072L1132.03 149.23C1117.77 144.503 1103.35 140.423 1088.81 137.006C1064.05 131.384 1041.26 129.259 1019.16 130.499L1018.54 130.536C1001.35 131.565 983.46 135.127 965.525 139.596C970.988 139.232 976.463 138.883 981.951 138.548L981.963 138.51Z" fill="white"/>
<path d="M189.762 274.051C184.488 274.335 179.13 274.164 173.759 273.538C163.185 272.225 152.655 269.849 142.374 266.457C120.656 259.579 97.1491 248.797 74.4252 238.38C55.9098 229.887 36.77 221.111 18.6696 214.466C-1.61559 207.019 -18.4115 203.119 -32.6618 202.539L-32.7013 202.358C-15.7744 201.355 2.24869 203.337 22.407 208.417C40.6638 213.025 59.0478 219.772 76.1845 226.374C84.2929 229.501 94.1983 234.549 104.693 239.901C129.578 252.619 157.846 267.019 177.287 264.058C202.317 260.245 211.551 240.863 221.32 220.344C226.938 208.575 232.737 196.393 241.806 186.667C251.581 175.885 265.82 169.09 281.985 167.496C300.608 165.387 321.222 166.037 344.997 169.469C366.189 172.523 387.884 177.466 408.869 182.241C429.855 187.017 451.626 191.983 472.878 195.043C496.735 198.479 517.388 199.126 536.103 197.021C566.375 193.61 587.908 177.088 608.726 161.111C619.845 152.578 630.344 144.521 642.09 138.298C655.413 131.251 667.929 127.86 681.587 127.617C694.095 127.396 707.247 130.114 721.878 135.915C734.887 141.099 747.815 148.206 760.32 155.082C773.248 162.189 786.593 169.546 800.125 174.781C815.263 180.652 828.965 183.173 841.997 182.501L842.482 182.472C860.381 181.411 877.296 173.247 893.656 165.344C903.53 160.575 913.749 155.64 923.806 152.532C966.32 139.388 1007.36 134.68 1045.78 138.549C1078.12 141.802 1110.15 153.914 1141.11 165.615C1161.1 173.162 1181.76 180.971 1202.17 186.246C1225.04 192.197 1245.22 194.234 1263.89 192.561C1295.71 189.761 1321.14 174.205 1345.68 159.195C1363.92 148.065 1381.16 137.517 1400.86 131.708C1410.76 128.675 1421.37 127.185 1432.26 127.298C1444.41 127.546 1456.7 129.799 1468.51 133.945L1469.22 134.186L1468.49 134.111C1449.51 132.332 1431.09 134.958 1412.18 142.144C1395.29 148.572 1379.49 157.994 1364.21 167.102C1342.82 179.852 1320.67 193.049 1294.78 198.685C1280.99 201.725 1266.55 203.036 1251.85 202.582C1238.09 202.121 1224.22 200.316 1210.49 197.198C1183.34 191.199 1156.3 180.836 1130.15 170.814C1102.73 160.291 1074.28 149.419 1045.09 143.212C999.198 133.474 968.116 152.718 938.051 171.334C925.811 178.92 913.154 186.758 899.834 192.307C884.944 198.524 870.647 201.217 856.143 200.533C843.394 199.928 829.501 196.258 813.654 189.352C799.509 183.157 785.073 174.943 771.12 167.01C752.26 156.254 732.759 145.189 713.227 138.565C703.622 135.182 693.677 133.109 683.755 132.421C673.294 131.767 663.07 132.994 653.687 136.03C629.998 143.536 614.963 158.905 600.422 173.779C590.954 183.475 581.161 193.473 569.035 201.216C555.831 209.84 539.941 215.03 522.839 216.304C487.694 219.11 453.128 207.047 419.704 195.382C403.683 189.792 387.127 184.006 370.924 180.061C352.802 175.655 336.93 174.002 322.415 175.055C281.686 178.009 266.09 203.102 251.003 227.362C238.578 247.353 226.846 266.244 202.061 272.28C198.087 273.232 193.969 273.825 189.762 274.051ZM-30.9146 202.444C-17.0234 203.265 -0.753037 207.15 18.7332 214.298C36.8336 220.943 55.9853 229.727 74.5007 238.22C97.2147 248.638 120.72 259.411 142.417 266.29C152.671 269.667 163.17 272.029 173.713 273.331C183.361 274.557 192.939 274.123 201.921 272.051C226.626 266.019 238.352 247.193 250.765 227.239C265.864 202.942 281.482 177.811 322.3 174.852C336.835 173.798 352.733 175.431 370.89 179.862C387.095 183.816 403.659 189.593 419.682 195.192C453.094 206.848 487.629 218.903 522.705 216.102C539.773 214.836 555.635 209.667 568.823 201.073C580.911 193.296 590.702 183.289 600.17 173.639C614.721 158.765 629.772 143.376 653.507 135.849C662.914 132.812 673.16 131.583 683.644 132.235C693.603 132.923 703.586 135.001 713.229 138.391C732.763 145.025 752.27 156.117 771.166 166.852C785.109 174.785 799.533 182.991 813.668 189.186C829.499 196.112 843.37 199.774 856.078 200.373C870.55 201.049 884.819 198.367 899.692 192.16C912.982 186.613 925.633 178.748 937.873 171.208C967.943 152.573 999.089 133.298 1045.06 143.058C1074.28 149.264 1102.69 160.148 1130.16 170.677C1156.3 180.69 1183.33 191.044 1210.47 197.044C1224.17 200.158 1238.01 201.962 1251.75 202.424C1266.42 202.879 1280.84 201.569 1294.62 198.53C1320.51 192.894 1342.64 179.716 1364.05 166.966C1379.33 157.839 1395.14 148.425 1412.05 141.997C1430.74 134.888 1448.96 132.236 1467.71 133.892C1456.14 129.903 1444.12 127.737 1432.24 127.5C1421.37 127.388 1410.79 128.873 1400.9 131.898C1381.23 137.704 1364.01 148.225 1345.77 159.372C1321.18 174.385 1295.76 189.922 1263.9 192.761C1245.18 194.428 1224.99 192.328 1202.1 186.442C1181.68 181.159 1161.06 173.347 1141.02 165.794C1110.05 154.103 1078.03 142.008 1045.7 138.755C1007.3 134.885 966.294 139.59 923.808 152.723C913.761 155.831 903.562 160.765 893.688 165.534C877.163 173.511 860.077 181.767 841.951 182.705C828.929 183.331 815.212 180.828 800.071 174.994C786.557 169.749 773.201 162.384 760.231 155.27C747.737 148.402 734.811 141.304 721.814 136.129C707.245 130.334 694.093 127.615 681.627 127.843C668.028 128.083 655.502 131.474 642.215 138.501C630.509 144.675 619.978 152.771 608.867 161.295C588.022 177.291 566.483 193.832 536.152 197.247C517.428 199.352 496.716 198.671 472.878 195.271C451.613 192.203 429.867 187.253 408.798 182.465C387.729 177.677 366.127 172.746 344.946 169.691C321.202 166.267 300.608 165.615 281.994 167.724C265.877 169.316 251.677 176.088 241.923 186.833C232.872 196.55 227.08 208.722 221.47 220.481C211.68 241.038 202.434 260.457 177.306 264.285C176.284 264.445 175.245 264.556 174.195 264.616C154.908 265.76 128.274 252.167 104.607 240.107C94.1228 234.755 84.2471 229.704 76.1307 226.587C58.994 219.985 40.62 213.237 22.385 208.637C2.93852 203.689 -14.5193 201.673 -30.9146 202.444Z" fill="white"/>
</g>
</svg>
