<svg width="81" height="81" viewBox="0 0 81 81" fill="none" xmlns="http://www.w3.org/2000/svg">
<rect x="1.38086" y="1.25586" width="79" height="79" rx="39.5" fill="#F9F9F9"/>
<rect x="1.38086" y="1.25586" width="79" height="79" rx="39.5" stroke="#1A90B0"/>
<g clip-path="url(#clip0_2252_964)">
<path d="M40.8809 34.7559C37.5672 34.7559 34.8809 32.0696 34.8809 28.7559C34.8809 25.4422 37.5672 22.7559 40.8809 22.7559C44.1946 22.7559 46.8809 25.4422 46.8809 28.7559C46.8809 32.0696 44.1946 34.7559 40.8809 34.7559Z" stroke="#1A90B0" stroke-width="2"/>
<path d="M27.8809 58.7559C24.5672 58.7559 21.8809 56.0696 21.8809 52.7559C21.8809 49.4421 24.5672 46.7559 27.8809 46.7559C31.1946 46.7559 33.8809 49.4422 33.8809 52.7559C33.8809 56.0696 31.1946 58.7559 27.8809 58.7559Z" stroke="#1A90B0" stroke-width="2"/>
<path d="M53.8809 58.7559C50.5672 58.7559 47.8809 56.0696 47.8809 52.7559C47.8809 49.4421 50.5672 46.7559 53.8809 46.7559C57.1946 46.7559 59.8809 49.4422 59.8809 52.7559C59.8809 56.0696 57.1946 58.7559 53.8809 58.7559Z" stroke="#1A90B0" stroke-width="1.5"/>
<path opacity="0.5" d="M56.8809 42.7559C56.8809 37.9771 54.7858 33.6876 51.4641 30.7559M24.8809 42.7559C24.8809 37.9771 26.9759 33.6876 30.2976 30.7559M36.8809 58.2518C38.1593 58.5809 39.4997 58.7559 40.8809 58.7559C42.2621 58.7559 43.6024 58.5809 44.8809 58.2518" stroke="#1A90B0" stroke-width="1.5" stroke-linecap="round"/>
</g>
<defs>
<clipPath id="clip0_2252_964">
<rect width="48" height="48" fill="white" transform="translate(16.8809 16.7559)"/>
</clipPath>
</defs>
</svg>
