<svg width="81" height="81" viewBox="0 0 81 81" fill="none" xmlns="http://www.w3.org/2000/svg">
<rect x="0.675781" y="1.25586" width="79" height="79" rx="39.5" fill="#F9F9F9"/>
<rect x="0.675781" y="1.25586" width="79" height="79" rx="39.5" stroke="#1A90B0"/>
<g clip-path="url(#clip0_2252_941)">
<path fill-rule="evenodd" clip-rule="evenodd" d="M28.0718 19.2559H52.2798C54.0767 19.2558 55.5752 19.2558 56.7647 19.4157C58.0203 19.5845 59.1539 19.9558 60.0649 20.8668C60.9758 21.7777 61.3472 22.9113 61.516 24.1669C61.6759 25.3565 61.6758 26.8549 61.6758 28.6519V28.8599C61.6758 30.6568 61.6759 32.1553 61.516 33.3448C61.3472 34.6004 60.9758 35.734 60.0649 36.645C59.1539 37.5559 58.0203 37.9272 56.7647 38.096C55.5752 38.256 54.0767 38.2559 52.2798 38.2559H28.0718C26.2748 38.2559 24.7764 38.256 23.5868 38.096C22.3312 37.9272 21.1976 37.5559 20.2867 36.645C19.3758 35.734 19.0044 34.6004 18.8356 33.3448C18.6757 32.1553 18.6757 30.6568 18.6758 28.8599V28.6519C18.6757 26.8549 18.6757 25.3565 18.8356 24.1669C19.0044 22.9113 19.3758 21.7777 20.2867 20.8668C21.1976 19.9558 22.3312 19.5845 23.5868 19.4157C24.7764 19.2558 26.2748 19.2558 28.0718 19.2559ZM23.9866 22.3889C23.0636 22.513 22.6687 22.7275 22.408 22.9881C22.1474 23.2487 21.9329 23.6437 21.8089 24.5666C21.679 25.5327 21.6758 26.8278 21.6758 28.7559C21.6758 30.6839 21.679 31.979 21.8089 32.9451C21.9329 33.868 22.1474 34.263 22.408 34.5236C22.6687 34.7843 23.0636 34.9987 23.9866 35.1228C24.9526 35.2527 26.2478 35.2559 28.1758 35.2559H52.1758C54.1038 35.2559 55.3989 35.2527 56.365 35.1228C57.2879 34.9987 57.6829 34.7843 57.9436 34.5236C58.2042 34.263 58.4186 33.868 58.5427 32.9451C58.6726 31.979 58.6758 30.6839 58.6758 28.7559C58.6758 26.8278 58.6726 25.5327 58.5427 24.5666C58.4186 23.6437 58.2042 23.2487 57.9436 22.9881C57.6829 22.7275 57.2879 22.513 56.365 22.3889C55.3989 22.259 54.1038 22.2559 52.1758 22.2559H28.1758C26.2478 22.2559 24.9526 22.259 23.9866 22.3889ZM28.1758 25.2559C29.0042 25.2559 29.6758 25.9274 29.6758 26.7559V30.7559C29.6758 31.5843 29.0042 32.2559 28.1758 32.2559C27.3474 32.2559 26.6758 31.5843 26.6758 30.7559V26.7559C26.6758 25.9274 27.3474 25.2559 28.1758 25.2559ZM34.1758 25.2559C35.0042 25.2559 35.6758 25.9274 35.6758 26.7559V30.7559C35.6758 31.5843 35.0042 32.2559 34.1758 32.2559C33.3474 32.2559 32.6758 31.5843 32.6758 30.7559V26.7559C32.6758 25.9274 33.3474 25.2559 34.1758 25.2559ZM41.6758 28.7559C41.6758 27.9274 42.3474 27.2559 43.1758 27.2559H52.1758C53.0042 27.2559 53.6758 27.9274 53.6758 28.7559C53.6758 29.5843 53.0042 30.2559 52.1758 30.2559H43.1758C42.3474 30.2559 41.6758 29.5843 41.6758 28.7559ZM28.0718 41.2559H52.2798C54.0767 41.2558 55.5752 41.2558 56.7647 41.4157C58.0203 41.5845 59.1539 41.9558 60.0649 42.8668C60.9758 43.7777 61.3472 44.9113 61.516 46.1669C61.6759 47.3565 61.6758 48.8549 61.6758 50.6519V50.8598C61.6758 52.6568 61.6759 54.1553 61.516 55.3448C61.3472 56.6004 60.9758 57.734 60.0649 58.645C59.1539 59.5559 58.0203 59.9272 56.7647 60.096C55.5752 60.256 54.0767 60.2559 52.2798 60.2559H28.0718C26.2748 60.2559 24.7764 60.256 23.5868 60.096C22.3312 59.9272 21.1976 59.5559 20.2867 58.645C19.3758 57.734 19.0044 56.6004 18.8356 55.3448C18.6757 54.1553 18.6757 52.6568 18.6758 50.8599V50.6519C18.6757 48.8549 18.6757 47.3565 18.8356 46.1669C19.0044 44.9113 19.3758 43.7777 20.2867 42.8668C21.1976 41.9558 22.3312 41.5845 23.5868 41.4157C24.7764 41.2558 26.2748 41.2558 28.0718 41.2559ZM23.9866 44.3889C23.0636 44.513 22.6687 44.7275 22.408 44.9881C22.1474 45.2487 21.9329 45.6437 21.8089 46.5666C21.679 47.5327 21.6758 48.8278 21.6758 50.7559C21.6758 52.6839 21.679 53.979 21.8089 54.9451C21.9329 55.868 22.1474 56.263 22.408 56.5236C22.6687 56.7843 23.0636 56.9987 23.9866 57.1228C24.9526 57.2527 26.2478 57.2559 28.1758 57.2559H52.1758C54.1038 57.2559 55.3989 57.2527 56.365 57.1228C57.2879 56.9987 57.6829 56.7843 57.9436 56.5236C58.2042 56.263 58.4186 55.868 58.5427 54.9451C58.6726 53.979 58.6758 52.6839 58.6758 50.7559C58.6758 48.8278 58.6726 47.5327 58.5427 46.5666C58.4186 45.6437 58.2042 45.2487 57.9436 44.9881C57.6829 44.7275 57.2879 44.513 56.365 44.3889C55.3989 44.259 54.1038 44.2559 52.1758 44.2559H28.1758C26.2478 44.2559 24.9526 44.259 23.9866 44.3889ZM28.1758 47.2559C29.0042 47.2559 29.6758 47.9274 29.6758 48.7559V52.7559C29.6758 53.5843 29.0042 54.2559 28.1758 54.2559C27.3474 54.2559 26.6758 53.5843 26.6758 52.7559V48.7559C26.6758 47.9274 27.3474 47.2559 28.1758 47.2559ZM34.1758 47.2559C35.0042 47.2559 35.6758 47.9274 35.6758 48.7559V52.7559C35.6758 53.5843 35.0042 54.2559 34.1758 54.2559C33.3474 54.2559 32.6758 53.5843 32.6758 52.7559V48.7559C32.6758 47.9274 33.3474 47.2559 34.1758 47.2559ZM41.6758 50.7559C41.6758 49.9274 42.3474 49.2559 43.1758 49.2559H52.1758C53.0042 49.2559 53.6758 49.9274 53.6758 50.7559C53.6758 51.5843 53.0042 52.2559 52.1758 52.2559H43.1758C42.3474 52.2559 41.6758 51.5843 41.6758 50.7559Z" fill="#1A90B0"/>
</g>
<defs>
<clipPath id="clip0_2252_941">
<rect width="48" height="48" fill="white" transform="translate(16.1758 16.7559)"/>
</clipPath>
</defs>
</svg>
