<svg width="620" height="323" viewBox="0 0 620 323" fill="none" xmlns="http://www.w3.org/2000/svg">
<rect x="0.244141" y="0.947266" width="619.382" height="322" rx="16" fill="white"/>
<rect x="0.244141" y="0.947266" width="619.382" height="322" rx="16"/>
<rect x="0.244141" y="0.947266" width="619.382" height="322" rx="16" fill="black" fill-opacity="0.6"/>
<path d="M45.5541 184.556L46.3081 182.178C48.5701 182.178 50.5131 182.12 52.1371 182.004C53.7805 181.888 55.1241 181.705 56.1681 181.453C57.2315 181.183 58.0145 180.825 58.5171 180.38C59.0391 179.916 59.3001 179.356 59.3001 178.698C59.3001 177.964 59.1648 177.113 58.8941 176.146C58.6235 175.18 58.2755 174.145 57.8501 173.043L60.0831 172.26C60.3345 172.879 60.5665 173.546 60.7791 174.261C61.0111 174.957 61.2045 175.653 61.3591 176.349C61.5138 177.026 61.5911 177.654 61.5911 178.234C61.5911 179.375 61.3301 180.351 60.8081 181.163C60.2861 181.956 59.4161 182.604 58.1981 183.106C56.9801 183.609 55.3368 183.976 53.2681 184.208C51.2188 184.44 48.6475 184.556 45.5541 184.556ZM45.5541 184.556C43.8335 184.556 42.3158 184.44 41.0011 184.208C39.7058 183.996 38.6231 183.657 37.7531 183.193C36.8831 182.729 36.2258 182.13 35.7811 181.395C35.3365 180.641 35.1141 179.733 35.1141 178.669C35.1141 178.186 35.1528 177.693 35.2301 177.19C35.3075 176.668 35.4041 176.146 35.5201 175.624C35.6555 175.102 35.7908 174.6 35.9261 174.116L38.1011 174.667C38.0238 174.957 37.9368 175.305 37.8401 175.711C37.7435 176.098 37.6565 176.494 37.5791 176.9C37.5211 177.306 37.4921 177.674 37.4921 178.002C37.4921 179.008 37.7435 179.82 38.2461 180.438C38.7681 181.038 39.6671 181.482 40.9431 181.772C42.2191 182.043 44.0075 182.178 46.3081 182.178L46.8881 183.628L45.5541 184.556ZM50.3971 172.318C49.9911 172.318 49.6431 172.183 49.3531 171.912C49.0825 171.622 48.9471 171.284 48.9471 170.897C48.9471 170.511 49.0825 170.172 49.3531 169.882C49.6431 169.592 49.9911 169.447 50.3971 169.447C50.7838 169.447 51.1125 169.592 51.3831 169.882C51.6731 170.172 51.8181 170.511 51.8181 170.897C51.8181 171.284 51.6731 171.622 51.3831 171.912C51.1125 172.183 50.7838 172.318 50.3971 172.318ZM46.4241 172.318C46.0181 172.318 45.6701 172.183 45.3801 171.912C45.1095 171.622 44.9741 171.284 44.9741 170.897C44.9741 170.511 45.1095 170.172 45.3801 169.882C45.6701 169.592 46.0181 169.447 46.4241 169.447C46.8108 169.447 47.1395 169.592 47.4101 169.882C47.7001 170.172 47.8451 170.511 47.8451 170.897C47.8451 171.284 47.7001 171.622 47.4101 171.912C47.1395 172.183 46.8108 172.318 46.4241 172.318ZM74.4429 168.403C74.4429 167.978 74.4139 167.466 74.3559 166.866C74.2979 166.267 74.2302 165.668 74.1529 165.068C74.0756 164.469 73.9982 163.957 73.9209 163.531L76.4149 163.241C76.4729 163.628 76.5309 164.14 76.5889 164.778C76.6662 165.397 76.7242 166.016 76.7629 166.634C76.8016 167.253 76.8209 167.765 76.8209 168.171C76.8209 169.099 76.7532 170.008 76.6179 170.897C76.5019 171.767 76.3086 172.628 76.0379 173.478C75.7672 174.31 75.4096 175.122 74.9649 175.914L74.6169 176.552C74.0756 177.461 73.4086 178.341 72.6159 179.191C71.8232 180.023 70.8952 180.815 69.8319 181.569H73.4859C74.1432 181.569 74.6459 181.492 74.9939 181.337C75.3419 181.163 75.5739 180.941 75.6899 180.67C75.8252 180.4 75.8929 180.11 75.8929 179.8C75.8929 179.278 75.5739 178.631 74.9359 177.857C74.3172 177.065 73.4569 176.195 72.3549 175.247C71.2529 174.281 70.0059 173.266 68.6139 172.202C67.2219 171.139 65.7526 170.056 64.2059 168.954L65.5689 167.04C67.3476 168.355 68.9136 169.544 70.2669 170.607C71.6396 171.671 72.8092 172.647 73.7759 173.536C74.7619 174.406 75.5642 175.218 76.1829 175.972C76.8209 176.707 77.2849 177.413 77.5749 178.089C77.8842 178.747 78.0389 179.394 78.0389 180.032C78.0389 180.458 77.9616 180.902 77.8069 181.366C77.6716 181.811 77.4202 182.236 77.0529 182.642C76.7049 183.029 76.2022 183.348 75.5449 183.599C74.9069 183.831 74.0756 183.947 73.0509 183.947H66.3809V181.598C68.3722 180.168 69.9479 178.776 71.1079 177.422C72.2872 176.069 73.1379 174.658 73.6599 173.188C74.1819 171.719 74.4429 170.124 74.4429 168.403ZM81.6068 190.617L81.0848 188.239C82.2448 188.085 83.3081 187.862 84.2748 187.572C85.2608 187.302 86.1018 186.905 86.7978 186.383C87.5131 185.861 88.0641 185.175 88.4508 184.324C88.8375 183.474 89.0308 182.41 89.0308 181.134C89.0308 180.535 88.9728 179.965 88.8568 179.423C88.7408 178.863 88.5668 178.37 88.3348 177.944C88.1028 177.519 87.8225 177.181 87.4938 176.929C87.1845 176.678 86.8268 176.552 86.4208 176.552C85.9761 176.552 85.5701 176.726 85.2028 177.074C84.8548 177.403 84.5745 177.828 84.3618 178.35C84.1685 178.872 84.0718 179.394 84.0718 179.916C84.0718 180.322 84.1491 180.68 84.3038 180.989C84.4778 181.279 84.7581 181.502 85.1448 181.656C85.5315 181.811 86.0341 181.888 86.6528 181.888C87.2135 181.888 87.7741 181.83 88.3348 181.714C88.9148 181.598 89.4078 181.444 89.8138 181.25L89.9298 183.28C89.4658 183.609 88.9148 183.841 88.2768 183.976C87.6581 184.112 87.0298 184.179 86.3918 184.179C85.6571 184.179 84.9998 184.102 84.4198 183.947C83.8591 183.793 83.3758 183.57 82.9698 183.28C82.5831 182.971 82.2835 182.584 82.0708 182.12C81.8775 181.656 81.7808 181.115 81.7808 180.496C81.7808 179.762 81.8968 179.027 82.1288 178.292C82.3608 177.538 82.6895 176.852 83.1148 176.233C83.5401 175.615 84.0525 175.122 84.6518 174.754C85.2511 174.368 85.9181 174.174 86.6528 174.174C87.4261 174.174 88.1028 174.377 88.6828 174.783C89.2628 175.17 89.7461 175.702 90.1328 176.378C90.5195 177.055 90.8095 177.819 91.0028 178.669C91.1961 179.52 91.2928 180.4 91.2928 181.308C91.2928 183.106 90.9255 184.653 90.1908 185.948C89.4755 187.263 88.3928 188.307 86.9428 189.08C85.5121 189.854 83.7335 190.366 81.6068 190.617ZM101.335 184.092C99.7878 184.092 98.5988 183.918 97.7675 183.57C96.9555 183.222 96.3948 182.681 96.0855 181.946C95.7762 181.212 95.6022 180.264 95.5635 179.104L94.9835 163.241H97.3615L97.9415 178.176C97.9802 179.124 98.0672 179.858 98.2025 180.38C98.3572 180.883 98.6858 181.231 99.1885 181.424C99.7105 181.618 100.523 181.714 101.625 181.714C102.031 181.714 102.321 181.83 102.495 182.062C102.688 182.275 102.785 182.536 102.785 182.845C102.785 183.155 102.649 183.445 102.379 183.715C102.108 183.967 101.76 184.092 101.335 184.092ZM101.335 184.092L101.625 181.714C102.108 181.714 102.601 181.714 103.104 181.714C103.626 181.695 104.138 181.666 104.641 181.627C105.144 181.589 105.627 181.54 106.091 181.482C106.555 181.424 106.971 181.337 107.338 181.221C108.015 181.009 108.633 180.728 109.194 180.38C109.774 180.032 110.238 179.607 110.586 179.104C110.953 178.602 111.137 178.022 111.137 177.364C111.137 176.92 111.031 176.465 110.818 176.001C110.605 175.518 110.315 175.112 109.948 174.783C109.581 174.455 109.155 174.29 108.672 174.29C108.208 174.29 107.773 174.445 107.367 174.754C106.98 175.064 106.661 175.47 106.41 175.972C106.178 176.456 106.062 176.958 106.062 177.48C106.062 178.099 106.217 178.66 106.526 179.162C106.855 179.646 107.251 180.061 107.715 180.409C108.179 180.757 108.643 181.038 109.107 181.25L106.352 182.062C106.043 181.83 105.675 181.511 105.25 181.105C104.844 180.68 104.477 180.158 104.148 179.539C103.839 178.921 103.684 178.215 103.684 177.422C103.684 176.649 103.819 175.934 104.09 175.276C104.38 174.6 104.757 174.01 105.221 173.507C105.704 173.005 106.246 172.618 106.845 172.347C107.464 172.057 108.102 171.912 108.759 171.912C109.706 171.912 110.538 172.173 111.253 172.695C111.968 173.217 112.519 173.884 112.906 174.696C113.312 175.489 113.515 176.32 113.515 177.19C113.515 178.022 113.36 178.776 113.051 179.452C112.742 180.11 112.316 180.699 111.775 181.221C111.253 181.743 110.634 182.188 109.919 182.555C109.223 182.923 108.479 183.222 107.686 183.454C107.241 183.59 106.758 183.696 106.236 183.773C105.733 183.851 105.202 183.909 104.641 183.947C104.08 184.005 103.52 184.044 102.959 184.063C102.398 184.083 101.857 184.092 101.335 184.092ZM115.69 184.092C114.723 184.092 113.718 184.034 112.674 183.918C111.649 183.783 110.673 183.619 109.745 183.425C108.836 183.213 108.082 182.981 107.483 182.729L109.484 181.279C110.064 181.357 110.75 181.434 111.543 181.511C112.336 181.569 113.128 181.618 113.921 181.656C114.714 181.695 115.4 181.714 115.98 181.714C116.386 181.714 116.676 181.83 116.85 182.062C117.043 182.275 117.14 182.536 117.14 182.845C117.14 183.155 117.005 183.445 116.734 183.715C116.463 183.967 116.115 184.092 115.69 184.092ZM110.528 168.925C110.122 168.925 109.774 168.79 109.484 168.519C109.213 168.229 109.078 167.891 109.078 167.504C109.078 167.118 109.213 166.779 109.484 166.489C109.774 166.199 110.122 166.054 110.528 166.054C110.915 166.054 111.243 166.199 111.514 166.489C111.804 166.779 111.949 167.118 111.949 167.504C111.949 167.891 111.804 168.229 111.514 168.519C111.243 168.79 110.915 168.925 110.528 168.925ZM106.555 168.925C106.149 168.925 105.801 168.79 105.511 168.519C105.24 168.229 105.105 167.891 105.105 167.504C105.105 167.118 105.24 166.779 105.511 166.489C105.801 166.199 106.149 166.054 106.555 166.054C106.942 166.054 107.27 166.199 107.541 166.489C107.831 166.779 107.976 167.118 107.976 167.504C107.976 167.891 107.831 168.229 107.541 168.519C107.27 168.79 106.942 168.925 106.555 168.925ZM115.693 184.092L115.983 181.714C116.525 181.714 116.95 181.598 117.259 181.366C117.588 181.134 117.897 180.748 118.187 180.206C118.497 179.665 118.883 178.94 119.347 178.031C119.811 177.103 120.275 176.349 120.739 175.769C121.223 175.17 121.687 174.706 122.131 174.377C122.595 174.029 123.03 173.788 123.436 173.652C123.842 173.517 124.219 173.449 124.567 173.449C125.205 173.449 125.776 173.594 126.278 173.884C126.781 174.155 127.255 174.629 127.699 175.305C128.144 175.963 128.598 176.871 129.062 178.031C129.507 179.095 129.903 179.897 130.251 180.438C130.619 180.96 130.996 181.308 131.382 181.482C131.788 181.637 132.243 181.714 132.745 181.714C133.151 181.714 133.441 181.83 133.615 182.062C133.809 182.275 133.905 182.536 133.905 182.845C133.905 183.155 133.77 183.445 133.499 183.715C133.229 183.967 132.881 184.092 132.455 184.092C131.701 184.092 131.005 183.967 130.367 183.715C129.749 183.464 129.227 183.068 128.801 182.526L129.207 181.917C128.995 182.517 128.705 183.01 128.337 183.396C127.989 183.764 127.593 184.034 127.148 184.208C126.704 184.402 126.23 184.498 125.727 184.498C125.089 184.498 124.432 184.363 123.755 184.092C123.098 183.822 122.46 183.435 121.841 182.932C121.223 182.43 120.681 181.84 120.217 181.163C119.715 182.053 119.231 182.71 118.767 183.135C118.323 183.541 117.859 183.802 117.375 183.918C116.892 184.034 116.331 184.092 115.693 184.092ZM121.319 178.959C121.648 179.501 121.996 179.974 122.363 180.38C122.75 180.786 123.137 181.125 123.523 181.395C123.91 181.647 124.287 181.84 124.654 181.975C125.041 182.091 125.389 182.149 125.698 182.149C126.375 182.149 126.868 181.908 127.177 181.424C127.506 180.941 127.496 180.264 127.148 179.394C126.974 178.95 126.791 178.515 126.597 178.089C126.423 177.664 126.23 177.277 126.017 176.929C125.805 176.562 125.563 176.282 125.292 176.088C125.022 175.876 124.722 175.769 124.393 175.769C124.103 175.769 123.794 175.866 123.465 176.059C123.156 176.253 122.818 176.581 122.45 177.045C122.102 177.509 121.725 178.147 121.319 178.959ZM132.459 184.092L132.72 181.714C133.822 181.714 134.595 181.608 135.04 181.395C135.485 181.183 135.736 180.806 135.794 180.264C135.871 179.723 135.891 178.969 135.852 178.002L135.301 163.241H137.65L138.23 177.741C138.269 178.766 138.23 179.675 138.114 180.467C138.017 181.26 137.766 181.927 137.36 182.468C136.973 183.01 136.384 183.416 135.591 183.686C134.818 183.957 133.774 184.092 132.459 184.092ZM142.66 183.947L142.08 163.241H144.429L145.009 183.947H142.66ZM148.584 190.617L148.062 188.239C149.222 188.085 150.286 187.862 151.252 187.572C152.238 187.302 153.079 186.905 153.775 186.383C154.491 185.861 155.042 185.175 155.428 184.324C155.815 183.474 156.008 182.41 156.008 181.134C156.008 180.535 155.95 179.965 155.834 179.423C155.718 178.863 155.544 178.37 155.312 177.944C155.08 177.519 154.8 177.181 154.471 176.929C154.162 176.678 153.804 176.552 153.398 176.552C152.954 176.552 152.548 176.726 152.18 177.074C151.832 177.403 151.552 177.828 151.339 178.35C151.146 178.872 151.049 179.394 151.049 179.916C151.049 180.322 151.127 180.68 151.281 180.989C151.455 181.279 151.736 181.502 152.122 181.656C152.509 181.811 153.012 181.888 153.63 181.888C154.191 181.888 154.752 181.83 155.312 181.714C155.892 181.598 156.385 181.444 156.791 181.25L156.907 183.28C156.443 183.609 155.892 183.841 155.254 183.976C154.636 184.112 154.007 184.179 153.369 184.179C152.635 184.179 151.977 184.102 151.397 183.947C150.837 183.793 150.353 183.57 149.947 183.28C149.561 182.971 149.261 182.584 149.048 182.12C148.855 181.656 148.758 181.115 148.758 180.496C148.758 179.762 148.874 179.027 149.106 178.292C149.338 177.538 149.667 176.852 150.092 176.233C150.518 175.615 151.03 175.122 151.629 174.754C152.229 174.368 152.896 174.174 153.63 174.174C154.404 174.174 155.08 174.377 155.66 174.783C156.24 175.17 156.724 175.702 157.11 176.378C157.497 177.055 157.787 177.819 157.98 178.669C158.174 179.52 158.27 180.4 158.27 181.308C158.27 183.106 157.903 184.653 157.168 185.948C156.453 187.263 155.37 188.307 153.92 189.08C152.49 189.854 150.711 190.366 148.584 190.617ZM178.037 184.556L178.791 182.178C181.053 182.178 182.996 182.12 184.62 182.004C186.263 181.888 187.607 181.705 188.651 181.453C189.714 181.183 190.497 180.825 191 180.38C191.522 179.916 191.783 179.356 191.783 178.698C191.783 177.964 191.647 177.113 191.377 176.146C191.106 175.18 190.758 174.145 190.333 173.043L192.566 172.26C192.817 172.879 193.049 173.546 193.262 174.261C193.494 174.957 193.687 175.653 193.842 176.349C193.996 177.026 194.074 177.654 194.074 178.234C194.074 179.375 193.813 180.351 193.291 181.163C192.769 181.956 191.899 182.604 190.681 183.106C189.463 183.609 187.819 183.976 185.751 184.208C183.701 184.44 181.13 184.556 178.037 184.556ZM178.037 184.556C176.316 184.556 174.798 184.44 173.484 184.208C172.188 183.996 171.106 183.657 170.236 183.193C169.366 182.729 168.708 182.13 168.264 181.395C167.819 180.641 167.597 179.733 167.597 178.669C167.597 178.186 167.635 177.693 167.713 177.19C167.79 176.668 167.887 176.146 168.003 175.624C168.138 175.102 168.273 174.6 168.409 174.116L170.584 174.667C170.506 174.957 170.419 175.305 170.323 175.711C170.226 176.098 170.139 176.494 170.062 176.9C170.004 177.306 169.975 177.674 169.975 178.002C169.975 179.008 170.226 179.82 170.729 180.438C171.251 181.038 172.15 181.482 173.426 181.772C174.702 182.043 176.49 182.178 178.791 182.178L179.371 183.628L178.037 184.556ZM182.88 172.318C182.474 172.318 182.126 172.183 181.836 171.912C181.565 171.622 181.43 171.284 181.43 170.897C181.43 170.511 181.565 170.172 181.836 169.882C182.126 169.592 182.474 169.447 182.88 169.447C183.266 169.447 183.595 169.592 183.866 169.882C184.156 170.172 184.301 170.511 184.301 170.897C184.301 171.284 184.156 171.622 183.866 171.912C183.595 172.183 183.266 172.318 182.88 172.318ZM178.907 172.318C178.501 172.318 178.153 172.183 177.863 171.912C177.592 171.622 177.457 171.284 177.457 170.897C177.457 170.511 177.592 170.172 177.863 169.882C178.153 169.592 178.501 169.447 178.907 169.447C179.293 169.447 179.622 169.592 179.893 169.882C180.183 170.172 180.328 170.511 180.328 170.897C180.328 171.284 180.183 171.622 179.893 171.912C179.622 172.183 179.293 172.318 178.907 172.318ZM198.196 183.947L197.616 163.241H199.965L200.545 183.947H198.196ZM201.818 190.617L200.977 188.413C202.93 187.795 204.428 187.05 205.472 186.18C206.535 185.33 207.26 184.44 207.647 183.512C208.053 182.584 208.256 181.695 208.256 180.844C208.256 180.303 208.198 179.781 208.082 179.278C207.966 178.776 207.763 178.205 207.473 177.567C207.183 176.929 206.777 176.137 206.255 175.189L208.372 174.116C209.107 175.373 209.629 176.562 209.938 177.683C210.267 178.805 210.431 179.791 210.431 180.641C210.431 181.859 210.228 182.961 209.822 183.947C209.435 184.933 208.913 185.803 208.256 186.557C207.618 187.331 206.912 187.988 206.139 188.529C205.385 189.071 204.621 189.515 203.848 189.863C203.094 190.211 202.417 190.463 201.818 190.617ZM220.79 184.092C219.243 184.092 218.054 183.918 217.223 183.57C216.411 183.222 215.85 182.681 215.541 181.946C215.231 181.212 215.057 180.264 215.019 179.104L214.439 163.241H216.817L217.397 178.176C217.435 179.124 217.522 179.858 217.658 180.38C217.812 180.883 218.141 181.231 218.644 181.424C219.166 181.618 219.978 181.714 221.08 181.714C221.486 181.714 221.776 181.83 221.95 182.062C222.143 182.275 222.24 182.536 222.24 182.845C222.24 183.155 222.104 183.445 221.834 183.715C221.563 183.967 221.215 184.092 220.79 184.092ZM220.79 184.092L221.08 181.714C221.563 181.714 222.056 181.714 222.559 181.714C223.081 181.695 223.593 181.666 224.096 181.627C224.599 181.589 225.082 181.54 225.546 181.482C226.01 181.424 226.426 181.337 226.793 181.221C227.47 181.009 228.088 180.728 228.649 180.38C229.229 180.032 229.693 179.607 230.041 179.104C230.408 178.602 230.592 178.022 230.592 177.364C230.592 176.92 230.486 176.465 230.273 176.001C230.06 175.518 229.77 175.112 229.403 174.783C229.036 174.455 228.61 174.29 228.127 174.29C227.663 174.29 227.228 174.445 226.822 174.754C226.435 175.064 226.116 175.47 225.865 175.972C225.633 176.456 225.517 176.958 225.517 177.48C225.517 178.099 225.672 178.66 225.981 179.162C226.31 179.646 226.706 180.061 227.17 180.409C227.634 180.757 228.098 181.038 228.562 181.25L225.807 182.062C225.498 181.83 225.13 181.511 224.705 181.105C224.299 180.68 223.932 180.158 223.603 179.539C223.294 178.921 223.139 178.215 223.139 177.422C223.139 176.649 223.274 175.934 223.545 175.276C223.835 174.6 224.212 174.01 224.676 173.507C225.159 173.005 225.701 172.618 226.3 172.347C226.919 172.057 227.557 171.912 228.214 171.912C229.161 171.912 229.993 172.173 230.708 172.695C231.423 173.217 231.974 173.884 232.361 174.696C232.767 175.489 232.97 176.32 232.97 177.19C232.97 178.022 232.815 178.776 232.506 179.452C232.197 180.11 231.771 180.699 231.23 181.221C230.708 181.743 230.089 182.188 229.374 182.555C228.678 182.923 227.934 183.222 227.141 183.454C226.696 183.59 226.213 183.696 225.691 183.773C225.188 183.851 224.657 183.909 224.096 183.947C223.535 184.005 222.975 184.044 222.414 184.063C221.853 184.083 221.312 184.092 220.79 184.092ZM235.145 184.092C234.178 184.092 233.173 184.034 232.129 183.918C231.104 183.783 230.128 183.619 229.2 183.425C228.291 183.213 227.537 182.981 226.938 182.729L228.939 181.279C229.519 181.357 230.205 181.434 230.998 181.511C231.791 181.569 232.583 181.618 233.376 181.656C234.169 181.695 234.855 181.714 235.435 181.714C235.841 181.714 236.131 181.83 236.305 182.062C236.498 182.275 236.595 182.536 236.595 182.845C236.595 183.155 236.46 183.445 236.189 183.715C235.918 183.967 235.57 184.092 235.145 184.092ZM229.983 168.925C229.577 168.925 229.229 168.79 228.939 168.519C228.668 168.229 228.533 167.891 228.533 167.504C228.533 167.118 228.668 166.779 228.939 166.489C229.229 166.199 229.577 166.054 229.983 166.054C230.37 166.054 230.698 166.199 230.969 166.489C231.259 166.779 231.404 167.118 231.404 167.504C231.404 167.891 231.259 168.229 230.969 168.519C230.698 168.79 230.37 168.925 229.983 168.925ZM226.01 168.925C225.604 168.925 225.256 168.79 224.966 168.519C224.695 168.229 224.56 167.891 224.56 167.504C224.56 167.118 224.695 166.779 224.966 166.489C225.256 166.199 225.604 166.054 226.01 166.054C226.397 166.054 226.725 166.199 226.996 166.489C227.286 166.779 227.431 167.118 227.431 167.504C227.431 167.891 227.286 168.229 226.996 168.519C226.725 168.79 226.397 168.925 226.01 168.925ZM235.148 184.092L235.438 181.714C236.598 181.714 237.691 181.608 238.715 181.395C239.74 181.163 240.678 180.864 241.528 180.496C242.398 180.11 243.143 179.675 243.761 179.191C244.38 178.689 244.854 178.176 245.182 177.654C245.53 177.113 245.704 176.581 245.704 176.059C245.704 175.808 245.617 175.557 245.443 175.305C245.269 175.035 244.97 174.812 244.544 174.638C244.138 174.464 243.587 174.377 242.891 174.377C242.466 174.377 241.992 174.435 241.47 174.551C240.948 174.667 240.446 174.832 239.962 175.044C239.498 175.238 239.112 175.46 238.802 175.711C239.324 176.137 239.808 176.552 240.252 176.958C240.716 177.364 241.19 177.809 241.673 178.292C242.157 178.756 242.679 179.288 243.239 179.887C243.684 180.216 244.177 180.496 244.718 180.728C245.279 180.96 245.878 181.154 246.516 181.308C247.174 181.444 247.841 181.55 248.517 181.627C249.194 181.685 249.871 181.714 250.547 181.714C250.953 181.714 251.243 181.83 251.417 182.062C251.611 182.275 251.707 182.536 251.707 182.845C251.707 183.155 251.572 183.445 251.301 183.715C251.031 183.967 250.683 184.092 250.257 184.092C249.194 184.092 248.102 183.996 246.98 183.802C245.878 183.59 244.844 183.28 243.877 182.874C242.911 182.449 242.089 181.917 241.412 181.279C241.084 180.854 240.716 180.429 240.31 180.003C239.904 179.578 239.46 179.153 238.976 178.727C238.512 178.283 238.01 177.867 237.468 177.48C237.352 177.384 237.236 177.21 237.12 176.958C237.004 176.707 236.908 176.446 236.83 176.175C236.753 175.905 236.714 175.702 236.714 175.566C236.714 175.276 236.898 174.928 237.265 174.522C237.633 174.116 238.126 173.73 238.744 173.362C239.363 172.976 240.069 172.657 240.861 172.405C241.654 172.154 242.476 172.028 243.326 172.028C244.428 172.028 245.318 172.193 245.994 172.521C246.69 172.85 247.193 173.275 247.502 173.797C247.831 174.3 247.995 174.841 247.995 175.421C247.995 176.272 247.783 177.123 247.357 177.973C246.932 178.805 246.323 179.588 245.53 180.322C244.738 181.057 243.81 181.714 242.746 182.294C241.683 182.855 240.504 183.3 239.208 183.628C237.932 183.938 236.579 184.092 235.148 184.092ZM250.271 184.092L250.532 181.714C251.634 181.714 252.408 181.608 252.852 181.395C253.297 181.183 253.548 180.806 253.606 180.264C253.684 179.723 253.703 178.969 253.664 178.002L253.113 163.241H255.462L256.042 177.741C256.081 178.766 256.042 179.675 255.926 180.467C255.83 181.26 255.578 181.927 255.172 182.468C254.786 183.01 254.196 183.416 253.403 183.686C252.63 183.957 251.586 184.092 250.271 184.092ZM260.473 183.947L259.893 163.241H262.242L262.822 183.947H260.473ZM281.515 195.373C280.471 195.373 279.389 195.248 278.267 194.996C277.146 194.764 276.102 194.349 275.135 193.749C274.169 193.169 273.376 192.377 272.757 191.371C272.158 190.385 271.858 189.138 271.858 187.63C271.858 186.238 272.139 184.933 272.699 183.715C273.26 182.497 274.053 181.395 275.077 180.409C276.121 179.423 277.349 178.592 278.76 177.915C280.172 177.239 281.728 176.755 283.429 176.465L284.038 178.727C282.627 178.979 281.322 179.356 280.123 179.858C278.925 180.361 277.881 180.98 276.991 181.714C276.121 182.43 275.445 183.251 274.961 184.179C274.478 185.127 274.236 186.161 274.236 187.282C274.236 188.191 274.391 188.974 274.7 189.631C275.01 190.289 275.416 190.83 275.918 191.255C276.44 191.7 277.02 192.048 277.658 192.299C278.296 192.551 278.944 192.725 279.601 192.821C280.278 192.937 280.916 192.995 281.515 192.995C282.54 192.995 283.584 192.899 284.647 192.705C285.711 192.531 286.677 192.261 287.547 191.893L288.301 193.923C287.837 194.155 287.219 194.378 286.445 194.59C285.691 194.822 284.879 195.006 284.009 195.141C283.139 195.296 282.308 195.373 281.515 195.373ZM276.73 180.003C275.957 179.81 275.261 179.462 274.642 178.959C274.024 178.457 273.531 177.857 273.163 177.161C272.815 176.465 272.641 175.731 272.641 174.957C272.641 173.739 272.922 172.724 273.482 171.912C274.062 171.1 274.797 170.491 275.686 170.085C276.595 169.679 277.552 169.476 278.557 169.476C279.002 169.476 279.476 169.515 279.978 169.592C280.481 169.67 280.964 169.786 281.428 169.94L280.935 172.173C280.549 172.077 280.143 171.999 279.717 171.941C279.292 171.883 278.905 171.854 278.557 171.854C277.861 171.854 277.243 171.98 276.701 172.231C276.16 172.483 275.735 172.831 275.425 173.275C275.116 173.701 274.961 174.203 274.961 174.783C274.961 175.305 275.106 175.779 275.396 176.204C275.706 176.61 276.092 176.968 276.556 177.277C277.02 177.567 277.494 177.79 277.977 177.944C278.461 178.08 278.886 178.138 279.253 178.118L276.73 180.003ZM294.706 184.092C293.159 184.092 291.97 183.918 291.139 183.57C290.327 183.222 289.766 182.681 289.457 181.946C289.147 181.212 288.973 180.264 288.935 179.104L288.355 163.241H290.733L291.313 178.176C291.351 179.124 291.438 179.858 291.574 180.38C291.728 180.883 292.057 181.231 292.56 181.424C293.082 181.618 293.894 181.714 294.996 181.714C295.402 181.714 295.692 181.83 295.866 182.062C296.059 182.275 296.156 182.536 296.156 182.845C296.156 183.155 296.02 183.445 295.75 183.715C295.479 183.967 295.131 184.092 294.706 184.092ZM315.296 184.092C314.793 184.092 314.155 184.044 313.382 183.947C312.628 183.831 311.855 183.638 311.062 183.367C310.289 183.097 309.631 182.72 309.09 182.236L311.468 181.047C312.145 181.318 312.841 181.502 313.556 181.598C314.291 181.676 314.967 181.714 315.586 181.714C315.992 181.714 316.282 181.83 316.456 182.062C316.649 182.275 316.746 182.536 316.746 182.845C316.746 183.155 316.611 183.445 316.34 183.715C316.069 183.967 315.721 184.092 315.296 184.092ZM294.706 184.092L294.996 181.714H301.057C302.739 181.714 304.189 181.647 305.407 181.511C306.644 181.357 307.659 181.134 308.452 180.844C309.245 180.554 309.834 180.187 310.221 179.742C310.608 179.278 310.801 178.737 310.801 178.118C310.801 177.79 310.695 177.432 310.482 177.045C310.269 176.659 309.941 176.33 309.496 176.059C309.051 175.769 308.462 175.624 307.727 175.624C306.799 175.624 305.871 175.866 304.943 176.349C304.034 176.833 303.164 177.442 302.333 178.176C301.521 178.892 300.796 179.626 300.158 180.38C299.52 181.134 299.008 181.792 298.621 182.352L296.098 182.265C296.717 181.26 297.451 180.235 298.302 179.191C299.172 178.128 300.119 177.152 301.144 176.262C302.188 175.354 303.28 174.629 304.421 174.087C305.562 173.527 306.722 173.246 307.901 173.246C308.964 173.246 309.873 173.469 310.627 173.913C311.4 174.339 311.99 174.919 312.396 175.653C312.821 176.388 313.034 177.219 313.034 178.147C313.034 179.056 312.705 179.974 312.048 180.902C311.391 181.811 310.26 182.526 308.655 183.048C307.843 183.319 306.915 183.532 305.871 183.686C304.827 183.841 303.638 183.947 302.304 184.005C300.97 184.063 299.452 184.092 297.751 184.092H294.706ZM297.461 181.221L296.881 163.241H299.23L299.81 179.191L297.461 181.221ZM315.295 184.092L315.585 181.714C316.068 181.714 316.6 181.714 317.18 181.714C317.779 181.695 318.379 181.676 318.978 181.656C319.597 181.637 320.167 181.598 320.689 181.54C321.211 181.463 321.646 181.366 321.994 181.25C322.69 180.999 323.231 180.69 323.618 180.322C324.005 179.936 324.275 179.433 324.43 178.814C324.604 178.176 324.691 177.364 324.691 176.378C324.691 175.566 324.585 174.812 324.372 174.116C324.159 173.42 323.86 172.86 323.473 172.434C323.086 172.009 322.622 171.796 322.081 171.796C321.636 171.796 321.23 171.97 320.863 172.318C320.515 172.647 320.235 173.072 320.022 173.594C319.829 174.116 319.732 174.638 319.732 175.16C319.732 175.566 319.809 175.914 319.964 176.204C320.138 176.494 320.418 176.726 320.805 176.9C321.192 177.055 321.694 177.132 322.313 177.132C322.874 177.132 323.434 177.074 323.995 176.958C324.575 176.842 325.068 176.688 325.474 176.494L325.59 178.524C325.281 178.737 324.933 178.911 324.546 179.046C324.159 179.182 323.753 179.278 323.328 179.336C322.903 179.394 322.477 179.423 322.052 179.423C321.066 179.423 320.225 179.269 319.529 178.959C318.852 178.631 318.33 178.196 317.963 177.654C317.615 177.094 317.441 176.456 317.441 175.74C317.441 175.006 317.557 174.271 317.789 173.536C318.021 172.782 318.35 172.096 318.775 171.477C319.2 170.859 319.713 170.366 320.312 169.998C320.911 169.612 321.578 169.418 322.313 169.418C323.357 169.418 324.217 169.757 324.894 170.433C325.59 171.11 326.102 171.999 326.431 173.101C326.779 174.184 326.953 175.334 326.953 176.552C326.953 178.002 326.702 179.249 326.199 180.293C325.716 181.318 324.904 182.169 323.763 182.845C323.318 183.097 322.777 183.309 322.139 183.483C321.52 183.638 320.834 183.764 320.08 183.86C319.345 183.957 318.572 184.015 317.76 184.034C316.948 184.073 316.126 184.092 315.295 184.092ZM323.792 166.431C323.386 166.431 323.038 166.296 322.748 166.025C322.477 165.735 322.342 165.397 322.342 165.01C322.342 164.624 322.477 164.285 322.748 163.995C323.038 163.705 323.386 163.56 323.792 163.56C324.179 163.56 324.507 163.705 324.778 163.995C325.068 164.285 325.213 164.624 325.213 165.01C325.213 165.397 325.068 165.735 324.778 166.025C324.507 166.296 324.179 166.431 323.792 166.431ZM319.819 166.431C319.413 166.431 319.065 166.296 318.775 166.025C318.504 165.735 318.369 165.397 318.369 165.01C318.369 164.624 318.504 164.285 318.775 163.995C319.065 163.705 319.413 163.56 319.819 163.56C320.206 163.56 320.534 163.705 320.805 163.995C321.095 164.285 321.24 164.624 321.24 165.01C321.24 165.397 321.095 165.735 320.805 166.025C320.534 166.296 320.206 166.431 319.819 166.431Z" fill="#F9F9F9"/>
<path d="M34.7131 220.049C34.7131 216.386 37.6825 213.416 41.3456 213.416H98.1427C101.806 213.416 104.775 216.386 104.775 220.049V257.846C104.775 261.509 101.806 264.478 98.1427 264.478H41.3456C37.6825 264.478 34.7131 261.509 34.7131 257.846V220.049Z" stroke="white" stroke-width="0.937842"/>
<path d="M57.0761 244.947V243.811H58.8041V244.947H57.0761ZM50.8841 244.947V243.811H56.8521L55.8281 244.723V241.235C55.8281 240.446 55.7375 239.822 55.5561 239.363C55.3748 238.905 55.0761 238.579 54.6601 238.387C54.2548 238.185 53.7055 238.083 53.0121 238.083H51.7161V236.947H53.0121C53.8655 236.947 54.5961 237.081 55.2041 237.347C55.8121 237.614 56.2761 238.062 56.5961 238.691C56.9161 239.31 57.0761 240.158 57.0761 241.235V244.947H50.8841ZM58.8041 244.947V243.811C58.8681 243.811 58.9215 243.827 58.9641 243.859C59.0068 243.881 59.0388 243.918 59.0601 243.971C59.0815 244.014 59.0975 244.073 59.1081 244.147C59.1188 244.211 59.1241 244.286 59.1241 244.371C59.1241 244.457 59.1188 244.537 59.1081 244.611C59.0975 244.686 59.0815 244.75 59.0601 244.803C59.0388 244.846 59.0068 244.883 58.9641 244.915C58.9215 244.937 58.8681 244.947 58.8041 244.947ZM58.8066 244.947V243.811H61.1106L60.5346 244.275V236.947H61.7826V244.947H58.8066ZM58.8066 244.947C58.7426 244.947 58.6893 244.937 58.6466 244.915C58.604 244.883 58.572 244.846 58.5506 244.803C58.5293 244.75 58.5133 244.686 58.5026 244.611C58.492 244.537 58.4866 244.457 58.4866 244.371C58.4866 244.254 58.4973 244.158 58.5186 244.083C58.5293 243.998 58.5613 243.934 58.6146 243.891C58.6573 243.838 58.7213 243.811 58.8066 243.811V244.947ZM59.4466 247.827V246.387H60.6946V247.827H59.4466ZM61.6386 247.827V246.387H62.8866V247.827H61.6386ZM67.1055 244.947V243.811H69.1535V244.947H67.1055ZM64.4975 248.483C64.3588 248.483 64.2148 248.473 64.0655 248.451C63.9055 248.441 63.7508 248.43 63.6015 248.419L63.7455 247.283C63.8948 247.294 64.0335 247.305 64.1615 247.315C64.2895 247.337 64.4015 247.347 64.4975 247.347C64.9988 247.347 65.4042 247.155 65.7135 246.771C66.0228 246.398 66.1775 245.875 66.1775 245.203V236.947H67.4255V245.203C67.4255 245.854 67.2975 246.425 67.0415 246.915C66.7962 247.417 66.4548 247.801 66.0175 248.067C65.5802 248.345 65.0735 248.483 64.4975 248.483ZM69.1535 244.947V243.811C69.2175 243.811 69.2708 243.827 69.3135 243.859C69.3562 243.881 69.3882 243.918 69.4095 243.971C69.4308 244.014 69.4468 244.073 69.4575 244.147C69.4682 244.211 69.4735 244.286 69.4735 244.371C69.4735 244.457 69.4682 244.537 69.4575 244.611C69.4468 244.686 69.4308 244.75 69.4095 244.803C69.3882 244.846 69.3562 244.883 69.3135 244.915C69.2708 244.937 69.2175 244.947 69.1535 244.947ZM66.1775 235.507V234.067H67.4255V235.507H66.1775ZM78.2224 244.947V243.811H79.9504V244.947H78.2224ZM69.1504 244.947C69.0864 244.947 69.0331 244.937 68.9904 244.915C68.9477 244.883 68.9157 244.846 68.8944 244.803C68.8731 244.75 68.8571 244.686 68.8464 244.611C68.8357 244.537 68.8304 244.457 68.8304 244.371C68.8304 244.254 68.8411 244.158 68.8624 244.083C68.8731 243.998 68.9051 243.934 68.9584 243.891C69.0011 243.838 69.0651 243.811 69.1504 243.811V244.947ZM69.1504 244.947V243.811H77.9024L76.9744 244.467V241.027C76.9744 240.281 76.8891 239.694 76.7184 239.267C76.5477 238.841 76.2544 238.537 75.8384 238.355C75.4331 238.174 74.8784 238.083 74.1744 238.083C73.7264 238.083 73.2784 238.115 72.8304 238.179C72.3931 238.243 72.0517 238.329 71.8064 238.435L72.5584 237.667C72.4944 237.923 72.4304 238.249 72.3664 238.643C72.3024 239.027 72.2491 239.443 72.2064 239.891C72.1637 240.339 72.1424 240.787 72.1424 241.235C72.1424 241.694 72.1637 242.142 72.2064 242.579C72.2491 243.017 72.2971 243.395 72.3504 243.715C72.4037 244.035 72.4464 244.259 72.4784 244.387L71.2944 244.723C71.2517 244.585 71.1984 244.345 71.1344 244.003C71.0811 243.662 71.0277 243.251 70.9744 242.771C70.9317 242.291 70.9104 241.779 70.9104 241.235C70.9104 240.713 70.9317 240.206 70.9744 239.715C71.0277 239.214 71.0864 238.761 71.1504 238.355C71.2251 237.95 71.2944 237.625 71.3584 237.379C71.5931 237.283 71.9664 237.187 72.4784 237.091C72.9904 236.995 73.5557 236.947 74.1744 236.947C75.0704 236.947 75.8171 237.081 76.4144 237.347C77.0224 237.614 77.4757 238.046 77.7744 238.643C78.0731 239.23 78.2224 240.025 78.2224 241.027V244.947H69.1504ZM79.9504 244.947V243.811C80.0144 243.811 80.0677 243.827 80.1104 243.859C80.1531 243.881 80.1851 243.918 80.2064 243.971C80.2277 244.014 80.2437 244.073 80.2544 244.147C80.2651 244.211 80.2704 244.286 80.2704 244.371C80.2704 244.457 80.2651 244.537 80.2544 244.611C80.2437 244.686 80.2277 244.75 80.2064 244.803C80.1851 244.846 80.1531 244.883 80.1104 244.915C80.0677 244.937 80.0144 244.947 79.9504 244.947ZM81.8833 244.947V233.475H83.1313V244.947H81.8833ZM79.9473 244.947V243.811H81.8833V244.947H79.9473ZM79.9473 244.947C79.8833 244.947 79.8299 244.937 79.7873 244.915C79.7446 244.883 79.7126 244.846 79.6913 244.803C79.6699 244.75 79.6539 244.686 79.6433 244.611C79.6326 244.537 79.6273 244.457 79.6273 244.371C79.6273 244.254 79.6379 244.158 79.6593 244.083C79.6699 243.998 79.7019 243.934 79.7553 243.891C79.7979 243.838 79.8619 243.811 79.9473 243.811V244.947ZM85.8895 244.947V233.475H87.1215V244.947H85.8895Z" fill="white"/>
</svg>
