<svg width="225" height="30" viewBox="0 0 225 30" fill="none" xmlns="http://www.w3.org/2000/svg">
<path d="M98.8828 12.3974V18.8925C98.8828 24.8339 103.679 29.6512 109.595 29.6512H115.629C121.545 29.6512 126.341 24.8339 126.341 18.8925V12.3974C126.341 6.45603 121.545 1.63867 115.629 1.63867H109.595C103.679 1.63628 98.8828 6.45363 98.8828 12.3974ZM109.358 5.87603H115.868C119.576 5.87603 122.583 8.89586 122.583 12.6203V18.9284C122.583 22.6529 119.576 25.6727 115.868 25.6727H109.358C105.65 25.6727 102.644 22.6529 102.644 18.9284V12.6203C102.644 8.89347 105.65 5.87603 109.358 5.87603Z" fill="white"/>
<path d="M154.92 2.30541C155.352 2.7512 155.57 3.28087 155.57 3.88963C155.57 4.50079 155.352 5.02327 154.92 5.45707C154.489 5.89087 153.968 6.10897 153.36 6.10897H144.631V27.5354C144.631 28.1681 144.414 28.7026 143.982 29.1364C143.55 29.5702 143.03 29.7883 142.421 29.7883C141.813 29.7883 141.288 29.5726 140.844 29.1364C140.4 28.7026 140.178 28.1681 140.178 27.5354V6.10897H131.485C130.877 6.10897 130.352 5.89327 129.908 5.45707C129.464 5.02327 129.242 4.50079 129.242 3.88963C129.242 3.27847 129.464 2.7512 129.908 2.30541C130.352 1.85963 130.877 1.63674 131.485 1.63674H153.36C153.968 1.63434 154.489 1.85963 154.92 2.30541Z" fill="white"/>
<path d="M181.716 1.63281C182.324 1.63281 182.849 1.85571 183.293 2.30149C183.737 2.74728 183.959 3.27695 183.959 3.88571C183.959 4.49686 183.737 5.01934 183.293 5.45314C182.849 5.88694 182.322 6.10504 181.716 6.10504H159.839C159.23 6.10504 158.71 5.88934 158.278 5.45314C157.846 5.01934 157.629 4.49686 157.629 3.88571C157.629 3.27455 157.844 2.74728 158.278 2.30149C158.71 1.85571 159.23 1.63281 159.839 1.63281H181.716Z" fill="white"/>
<path d="M91.1937 14.8498C92.4202 15.9403 93.3151 17.3974 93.716 19.0488V27.3509C93.716 27.9597 93.494 28.4893 93.0502 28.9351C92.6064 29.3809 92.0814 29.6038 91.4753 29.6038C90.8668 29.6038 90.3466 29.3785 89.9147 28.9351C89.7429 28.7602 89.6045 28.5684 89.5043 28.3647C89.3444 28.0555 89.2656 27.7176 89.2656 27.3509V20.5994C89.2656 20.1728 89.1893 19.7678 89.0461 19.3915C88.6452 18.3154 87.7217 17.4981 86.5883 17.2488C86.3497 17.1961 86.1039 17.1674 85.8509 17.1674H71.691V27.3509C71.691 27.9597 71.4691 28.4893 71.0276 28.9351C70.8463 29.1149 70.653 29.2587 70.4454 29.3665C70.1423 29.5271 69.8106 29.6062 69.4479 29.6062C68.8394 29.6062 68.3192 29.3809 67.8897 28.9375C67.4554 28.4893 67.2383 27.9621 67.2383 27.3533V15.1134C67.2383 14.6556 67.36 14.2482 67.6034 13.8911C67.6845 13.7712 67.78 13.6562 67.8897 13.5484C67.9804 13.4573 68.0711 13.3782 68.1689 13.3063C68.5889 12.9036 69.0852 12.6999 69.6627 12.6999H85.8485C85.8987 12.6999 85.9488 12.6999 85.9965 12.6951C87.7217 12.6232 89.1153 11.2643 89.2513 9.54587C89.2585 9.4548 89.2632 9.36373 89.2632 9.27025V5.92686H69.6627C69.0566 5.92686 68.534 5.70877 68.1045 5.27496C67.6702 4.83877 67.4554 4.31868 67.4554 3.70992C67.4554 3.09877 67.6702 2.5691 68.1045 2.12571C68.5364 1.67753 69.0566 1.45703 69.6627 1.45703H91.5373C92.1434 1.45703 92.6708 1.67992 93.1146 2.12571C93.5585 2.57149 93.7804 3.09877 93.7804 3.70992C93.7804 3.88967 93.7589 7.12761 93.7446 9.99405C93.4726 11.9042 92.5443 13.6011 91.1937 14.8498Z" fill="white"/>
<path d="M181.716 12.6582C182.324 12.6582 182.849 12.8811 183.293 13.3269C183.737 13.7727 183.959 14.3023 183.959 14.9111C183.959 15.5223 183.737 16.0447 183.293 16.4785C182.849 16.9123 182.322 17.1304 181.716 17.1304H159.839C159.23 17.1304 158.71 16.9147 158.278 16.4785C157.846 16.0447 157.629 15.5223 157.629 14.9111C157.629 14.2999 157.844 13.7727 158.278 13.3269C158.71 12.8811 159.23 12.6582 159.839 12.6582H181.716Z" fill="white"/>
<path d="M36.7183 27.2127C36.7183 27.8239 36.4964 28.3512 36.0526 28.7969C35.6087 29.2427 35.0814 29.4656 34.4753 29.4656C33.8668 29.4656 33.3466 29.2427 32.9147 28.7969C32.4828 28.3512 32.2656 27.8215 32.2656 27.2127V3.85215C32.2656 3.24099 32.4804 2.71852 32.9147 2.28471C33.3466 1.85091 33.8668 1.63281 34.4753 1.63281C35.0838 1.63281 35.6087 1.84852 36.0526 2.28471C36.4964 2.71852 36.7183 3.24099 36.7183 3.85215V27.2127Z" fill="white"/>
<path d="M30.2182 27.2126C30.2182 27.8238 29.9963 28.3535 29.5525 28.7969C29.1086 29.245 28.5837 29.4655 27.9776 29.4655C27.3691 29.4655 26.8489 29.2426 26.417 28.7969C25.9851 28.3511 25.7679 27.8238 25.7679 27.2126V8.5376L18.268 18.1004L17.0772 19.6199C16.2397 20.6864 14.6313 20.6864 13.7938 19.6199L12.603 18.1004L5.03627 8.45372V27.2126C5.03627 27.8238 4.81197 28.3535 4.37051 28.7969C3.92428 29.245 3.39931 29.4655 2.79321 29.4655C2.1871 29.4655 1.66452 29.2426 1.23499 28.7969C0.800699 28.3511 0.585938 27.8238 0.585938 27.2126C0.585938 27.2126 0.585938 10.2632 0.588324 3.9695C0.588324 2.68967 1.62157 1.6543 2.89582 1.6543H3.87179C4.65686 1.6543 5.40137 2.01141 5.89532 2.62496L15.4379 14.4886L24.854 2.63694C25.3479 2.0162 26.0972 1.6543 26.8871 1.6543H27.9561C29.2327 1.6543 30.266 2.69446 30.2636 3.9743C30.2516 10.2704 30.2182 27.2126 30.2182 27.2126Z" fill="white"/>
<path d="M181.716 25.2598C182.324 25.2598 182.849 25.4827 183.293 25.9284C183.737 26.3742 183.959 26.9039 183.959 27.5127C183.959 28.1238 183.737 28.6463 183.293 29.0801C182.849 29.5139 182.322 29.732 181.716 29.732H159.839C159.23 29.732 158.71 29.5163 158.278 29.0801C157.846 28.6463 157.629 28.1238 157.629 27.5127C157.629 26.9015 157.844 26.3742 158.278 25.9284C158.71 25.4827 159.23 25.2598 159.839 25.2598H181.716Z" fill="white"/>
<path d="M210.238 25.2594H194.859C192.492 25.2594 190.573 23.3325 190.573 20.955V10.4239C190.573 8.04637 192.492 6.11942 194.859 6.11942H210.238C210.847 6.11942 211.372 5.90372 211.816 5.46752C212.259 5.03372 212.481 4.51124 212.481 3.90008C212.481 3.28893 212.259 2.76166 211.816 2.31587C211.372 1.87008 210.844 1.63281 210.238 1.63281H194.527C190.01 1.63281 186.35 5.30934 186.35 9.84628V21.5086C186.35 26.0455 190.01 29.7221 194.527 29.7221H210.238C210.847 29.7221 211.372 29.5112 211.816 29.0774C212.259 28.6436 212.481 28.1211 212.481 27.5099C212.481 26.8988 212.259 26.3715 211.816 25.9257C211.372 25.4823 210.847 25.2594 210.238 25.2594Z" fill="white"/>
<path d="M62.9238 25.2594H47.5445C45.1773 25.2594 43.2588 23.3325 43.2588 20.955V10.4239C43.2588 8.04637 45.1773 6.11942 47.5445 6.11942H62.9238C63.5323 6.11942 64.0572 5.90372 64.5011 5.46752C64.9449 5.03372 65.1668 4.51124 65.1668 3.90008C65.1668 3.28893 64.9449 2.76166 64.5011 2.31587C64.0572 1.87008 63.5299 1.63281 62.9238 1.63281H47.2128C42.6956 1.63281 39.0352 5.30934 39.0352 9.84628V21.5086C39.0352 26.0455 42.6956 29.7221 47.2128 29.7221H62.9238C63.5323 29.7221 64.0572 29.5112 64.5011 29.0774C64.9449 28.6436 65.1668 28.1211 65.1668 27.5099C65.1668 26.8988 64.9449 26.3715 64.5011 25.9257C64.0572 25.4823 63.5323 25.2594 62.9238 25.2594Z" fill="white"/>
<path d="M107.956 13.127H97.2129V13.822H107.956V13.127Z" fill="white"/>
<path d="M128.264 12.5137H117.521V13.2087H128.264V12.5137Z" fill="white"/>
<path d="M127.859 17.3809H116.123V18.1238H127.859V17.3809Z" fill="white"/>
<path d="M110.528 18.123H97.2129V18.8181H110.528V18.123Z" fill="white"/>
<path d="M113.37 13.0586L112.227 14.2066L111.385 15.0526C111.048 15.3906 110.593 15.5799 110.118 15.5799H95.2754V16.5074H109.936H110.309C110.905 16.5074 111.478 16.2702 111.9 15.8459L114.05 13.6865C113.945 13.3774 113.69 13.1353 113.37 13.0586Z" fill="white"/>
<path d="M115.913 14.5844C115.305 14.5844 114.72 14.8289 114.288 15.2603L113.699 15.8523L112.527 17.0291C112.618 17.3454 112.864 17.5947 113.181 17.6834L114.35 16.509L114.816 16.0416C115.155 15.7013 115.615 15.5096 116.095 15.5096H130.794V14.582H115.913V14.5844Z" fill="white"/>
<path d="M114.387 16.7698C114.387 17.2947 113.962 17.7213 113.44 17.7213C113.349 17.7213 113.263 17.7094 113.182 17.6854C112.867 17.5967 112.619 17.3498 112.528 17.0311C112.504 16.9472 112.492 16.8585 112.492 16.7698C112.492 16.245 112.917 15.8184 113.44 15.8184C113.53 15.8184 113.616 15.8327 113.7 15.8543C114.015 15.9454 114.263 16.1922 114.351 16.511C114.375 16.5901 114.387 16.6788 114.387 16.7698Z" fill="white"/>
<path d="M129.369 17.7542C129.369 18.2791 128.945 18.7057 128.422 18.7057C128.331 18.7057 128.245 18.6937 128.164 18.6698C127.849 18.5811 127.601 18.3342 127.51 18.0155C127.487 17.9316 127.475 17.8429 127.475 17.7542C127.475 17.2293 127.899 16.8027 128.422 16.8027C128.513 16.8027 128.599 16.8171 128.682 16.8387C128.997 16.9298 129.245 17.1766 129.334 17.4954C129.357 17.5745 129.369 17.6631 129.369 17.7542Z" fill="white"/>
<path d="M114.092 13.9827C114.092 14.5076 113.668 14.9342 113.145 14.9342C113.04 14.9342 112.942 14.9175 112.849 14.8887C112.539 14.7856 112.3 14.5292 112.224 14.208C112.205 14.1361 112.195 14.0594 112.195 13.9827C112.195 13.4579 112.62 13.0312 113.143 13.0312C113.219 13.0312 113.295 13.0408 113.367 13.06C113.687 13.1367 113.944 13.3764 114.045 13.6879C114.076 13.779 114.092 13.8773 114.092 13.9827Z" fill="white"/>
<path d="M95.9501 16.0893C95.9501 16.8275 95.3536 17.4267 94.6186 17.4267C94.4731 17.4267 94.3347 17.4027 94.2034 17.362C93.7691 17.2182 93.4327 16.8586 93.3253 16.4057C93.299 16.305 93.2871 16.1972 93.2871 16.0893C93.2871 15.3511 93.8837 14.752 94.6186 14.752C94.726 14.752 94.8334 14.7639 94.9336 14.7903C95.3846 14.8982 95.7425 15.2361 95.8857 15.6723C95.9263 15.8041 95.9501 15.9431 95.9501 16.0893Z" fill="white"/>
<path d="M131.875 14.9135C131.875 15.5654 131.35 16.0927 130.701 16.0927C130.572 16.0927 130.45 16.0736 130.336 16.0352C129.954 15.9082 129.656 15.5918 129.563 15.1916C129.539 15.1029 129.529 15.007 129.529 14.9135C129.529 14.2616 130.054 13.7344 130.703 13.7344C130.796 13.7344 130.892 13.7464 130.98 13.7679C131.376 13.8614 131.694 14.161 131.82 14.5445C131.856 14.6595 131.875 14.7841 131.875 14.9135Z" fill="white"/>
<path d="M112.063 18.4691C112.063 18.9939 111.638 19.4206 111.116 19.4206C111.011 19.4206 110.913 19.4038 110.82 19.375C110.51 19.272 110.271 19.0155 110.195 18.6944C110.176 18.6225 110.166 18.5458 110.166 18.4691C110.166 17.9442 110.591 17.5176 111.113 17.5176C111.19 17.5176 111.266 17.5272 111.338 17.5463C111.657 17.623 111.915 17.8627 112.015 18.1743C112.046 18.2653 112.063 18.366 112.063 18.4691Z" fill="white"/>
<path d="M118.223 12.8616C118.223 13.3865 117.798 13.8131 117.276 13.8131C117.171 13.8131 117.073 13.7964 116.98 13.7676C116.67 13.6645 116.431 13.4081 116.355 13.0869C116.336 13.015 116.326 12.9383 116.326 12.8616C116.326 12.3368 116.751 11.9102 117.274 11.9102C117.35 11.9102 117.426 11.9197 117.498 11.9389C117.818 12.0156 118.075 12.2553 118.176 12.5668C118.207 12.6579 118.223 12.7562 118.223 12.8616Z" fill="white"/>
<path d="M97.9361 13.4749C97.9361 13.9998 97.5114 14.4264 96.9888 14.4264C96.8838 14.4264 96.786 14.4096 96.6929 14.3809C96.3827 14.2778 96.1441 14.0214 96.0677 13.7002C96.0486 13.6283 96.0391 13.5516 96.0391 13.4749C96.0391 12.95 96.4638 12.5234 96.9864 12.5234C97.0628 12.5234 97.1391 12.533 97.2107 12.5522C97.5305 12.6289 97.7882 12.8686 97.8884 13.1801C97.9194 13.2712 97.9361 13.3695 97.9361 13.4749Z" fill="white"/>
<path d="M108.753 13.4743C108.753 13.8457 108.452 14.1477 108.082 14.1477C108.008 14.1477 107.939 14.1357 107.875 14.1142C107.657 14.0423 107.486 13.8601 107.433 13.6324C107.421 13.5821 107.414 13.527 107.414 13.4743C107.414 13.1028 107.715 12.8008 108.085 12.8008C108.139 12.8008 108.192 12.808 108.242 12.82C108.469 12.8751 108.65 13.0452 108.722 13.2633C108.741 13.3305 108.753 13.4 108.753 13.4743Z" fill="white"/>
<path d="M129.085 12.861C129.085 13.2325 128.784 13.5344 128.414 13.5344C128.34 13.5344 128.271 13.5225 128.207 13.5009C127.989 13.429 127.818 13.2468 127.765 13.0192C127.753 12.9688 127.746 12.9137 127.746 12.861C127.746 12.4895 128.047 12.1875 128.417 12.1875C128.472 12.1875 128.524 12.1947 128.574 12.2067C128.801 12.2618 128.982 12.432 129.054 12.6501C129.073 12.7172 129.085 12.7867 129.085 12.861Z" fill="white"/>
<path d="M97.7156 18.3688C97.7156 18.7403 97.415 19.0423 97.0451 19.0423C96.9711 19.0423 96.9019 19.0303 96.8375 19.0087C96.6203 18.9368 96.4485 18.7547 96.396 18.527C96.3841 18.4766 96.377 18.4215 96.377 18.3688C96.377 17.9973 96.6776 17.6953 97.0475 17.6953C97.1024 17.6953 97.1549 17.7025 97.205 17.7145C97.4317 17.7696 97.613 17.9398 97.6846 18.1579C97.7061 18.225 97.7156 18.2969 97.7156 18.3688Z" fill="white"/>
<path d="M116.514 17.7535C116.514 18.125 116.214 18.427 115.844 18.427C115.77 18.427 115.701 18.415 115.636 18.3935C115.419 18.3216 115.247 18.1394 115.195 17.9117C115.183 17.8614 115.176 17.8063 115.176 17.7535C115.176 17.3821 115.476 17.0801 115.846 17.0801C115.901 17.0801 115.954 17.0873 116.004 17.0992C116.23 17.1544 116.412 17.3245 116.483 17.5426C116.503 17.6073 116.514 17.6793 116.514 17.7535Z" fill="white"/>
<path d="M221.008 7.11228C220.437 7.11228 219.91 6.98046 219.43 6.71922C218.948 6.45798 218.571 6.08889 218.292 5.61435C218.015 5.14459 217.877 4.62211 217.877 4.0493C217.877 3.4717 218.013 2.94683 218.285 2.48187C218.557 2.01451 218.941 1.64782 219.435 1.37939C219.924 1.11815 220.449 0.986328 221.01 0.986328C221.299 0.986328 221.576 1.01988 221.843 1.08459C222.11 1.1493 222.358 1.24757 222.59 1.37459C222.821 1.50401 223.034 1.6574 223.229 1.84195C223.425 2.0241 223.592 2.23501 223.728 2.46749C224.005 2.94203 224.143 3.4693 224.143 4.0493C224.143 4.3393 224.107 4.61732 224.033 4.88575C223.959 5.15418 223.854 5.40104 223.718 5.63112C223.582 5.86121 223.418 6.06732 223.225 6.25426C223.031 6.44121 222.812 6.59939 222.568 6.72881C222.082 6.98526 221.564 7.11228 221.008 7.11228ZM221.008 6.45798C221.335 6.45798 221.638 6.39567 221.917 6.27344C222.196 6.15121 222.439 5.98104 222.647 5.76534C222.855 5.54963 223.015 5.29559 223.131 5.00319C223.248 4.71079 223.308 4.39203 223.308 4.0493C223.308 3.71137 223.248 3.39501 223.131 3.10261C223.015 2.81021 222.852 2.55616 222.647 2.33567C222.439 2.11757 222.196 1.9474 221.912 1.82278C221.631 1.70054 221.325 1.63823 220.998 1.63823C220.671 1.63823 220.371 1.70054 220.094 1.82278C219.817 1.94501 219.574 2.11278 219.368 2.32608C219.161 2.53939 219.001 2.79344 218.884 3.08823C218.767 3.38302 218.707 3.70178 218.707 4.04691C218.707 4.39203 218.765 4.71079 218.884 5.00559C219.001 5.30038 219.163 5.55682 219.368 5.77253C219.576 5.98823 219.817 6.156 220.099 6.27583C220.38 6.39567 220.681 6.45798 221.008 6.45798ZM221.122 5.85162C220.862 5.85162 220.624 5.80608 220.409 5.71261C220.194 5.61914 220.01 5.49211 219.855 5.33154C219.7 5.17096 219.581 4.97922 219.497 4.75873C219.414 4.53823 219.371 4.29616 219.371 4.03492C219.371 3.75691 219.414 3.50286 219.497 3.27757C219.581 3.04988 219.7 2.85815 219.853 2.69996C220.005 2.54178 220.187 2.41955 220.399 2.33087C220.612 2.24459 220.848 2.19906 221.108 2.19906C221.504 2.19906 221.838 2.3117 222.108 2.53939C222.377 2.76707 222.535 3.07625 222.585 3.4693H221.948C221.905 3.27277 221.805 3.12178 221.65 3.01393C221.494 2.90848 221.313 2.85335 221.108 2.85335C220.798 2.85335 220.561 2.9612 220.399 3.17691C220.237 3.39261 220.156 3.67302 220.156 4.01575C220.156 4.18591 220.18 4.3417 220.23 4.4879C220.278 4.6317 220.344 4.75633 220.43 4.86178C220.514 4.96484 220.616 5.04633 220.736 5.10864C220.855 5.16856 220.986 5.19972 221.127 5.19972C221.344 5.19972 221.528 5.14459 221.678 5.03674C221.829 4.92649 221.919 4.76831 221.953 4.5622H222.614C222.58 4.75873 222.521 4.93848 222.435 5.09906C222.346 5.25963 222.239 5.39625 222.108 5.50889C221.977 5.62154 221.829 5.70782 221.664 5.76773C221.49 5.82286 221.313 5.85162 221.122 5.85162Z" fill="white"/>
</svg>
